<svg width="68" height="68" viewBox="0 0 68 68" fill="none" xmlns="http://www.w3.org/2000/svg">
<g clip-path="url(#clip0_119_12297)">
<path fill-rule="evenodd" clip-rule="evenodd" d="M35.6932 52.639C28.1633 57.8903 19.5631 61.7223 11.0418 60.9629C7.91203 60.6833 5.01456 59.5166 2.04137 58.3554C1.78004 58.2532 1.65041 57.9575 1.75307 57.6968C1.85471 57.436 2.15026 57.3056 2.41055 57.4078C5.29352 58.5341 8.09871 59.6793 11.131 59.9494C19.5238 60.6981 27.9766 56.8366 35.3676 51.6269C35.3427 51.5517 35.3168 51.4764 35.2909 51.4011C34.7205 49.7466 35.0824 47.3339 36.0147 44.799C37.367 41.1189 39.888 37.1647 42.155 34.9806C43.2003 33.9725 44.2125 33.3394 45.039 33.2064C45.7276 33.0948 46.3187 33.283 46.775 33.8166C47.1504 34.2574 47.3651 34.8193 47.4283 35.4779C47.5123 36.3569 47.3236 37.4241 46.9264 38.5854C45.4569 42.8824 41.1397 48.5369 38.7992 50.3514C38.066 50.9199 37.3203 51.4777 36.5612 52.0234C36.7126 52.4992 36.8589 52.9535 37.0383 53.3729C37.3017 53.9885 37.6346 54.5234 38.1966 54.9091C39.2337 55.6215 40.4771 55.7425 41.7485 55.557C43.7842 55.2613 45.8894 54.186 47.4418 53.264C56.1737 48.0786 60.4846 39.08 62.8034 30.0518C65.1492 20.9215 65.4562 11.7495 66.15 6.33963C66.1863 6.0614 66.4414 5.86382 66.7193 5.90011C66.9972 5.93506 67.1943 6.19044 67.159 6.46867C66.4611 11.9081 66.1458 21.1272 63.7886 30.3045C61.4045 39.584 56.9359 48.8084 47.9603 54.139C46.3083 55.1188 44.0611 56.2479 41.8947 56.5637C40.363 56.7855 38.8707 56.6054 37.6221 55.7478C36.8941 55.2479 36.444 54.5678 36.1039 53.7734C35.9514 53.4172 35.8208 53.0355 35.6932 52.639ZM36.2314 51.0087C35.7503 49.5248 36.1433 47.3944 36.9688 45.1498C38.2682 41.6136 40.6824 37.8112 42.8602 35.7117C43.5903 35.0088 44.284 34.4994 44.8969 34.2883C45.3398 34.1351 45.7266 34.1539 46.0014 34.4765C46.3177 34.8475 46.4369 35.3542 46.4317 35.9456C46.4266 36.627 46.2534 37.4133 45.964 38.2574C44.5547 42.3783 40.4211 47.8084 38.1769 49.5476C37.5381 50.0423 36.8889 50.5302 36.2314 51.0087Z" fill="white"/>
<path fill-rule="evenodd" clip-rule="evenodd" d="M1.20996 56.788C1.24419 57.0205 1.36035 57.3162 1.49412 57.6267C1.7959 58.3297 2.22522 59.0797 2.41604 59.4426C2.54567 59.6912 2.45027 59.999 2.20138 60.1294C1.95249 60.2598 1.64553 60.163 1.51486 59.9143C1.28256 59.4708 0.714263 58.4762 0.409374 57.6523C0.252781 57.2289 0.168777 56.8391 0.18537 56.5582C0.203 56.2826 0.315004 56.0972 0.474708 55.9654C0.642708 55.827 0.903002 55.745 1.25041 55.7558C1.63204 55.7679 2.17649 55.8888 2.77486 55.9332C3.27679 55.9708 3.82538 55.9547 4.32419 55.7047C4.57515 55.5783 4.88109 55.6792 5.00657 55.9305C5.13205 56.1805 5.03145 56.4869 4.78049 56.6119C3.84508 57.0824 2.78316 56.9802 1.94419 56.8592C1.69427 56.823 1.38419 56.7988 1.20996 56.788Z" fill="white"/>
</g>
<defs>
<clipPath id="clip0_119_12297">
<rect width="67.0816" height="67.0816" fill="white" transform="matrix(-1 0 0 1 67.1631 0)"/>
</clipPath>
</defs>
</svg>
