<svg width="68" height="68" viewBox="0 0 68 68" fill="none" xmlns="http://www.w3.org/2000/svg">
<g clip-path="url(#clip0_119_12292)">
<path fill-rule="evenodd" clip-rule="evenodd" d="M31.4699 52.639C38.9998 57.8903 47.5999 61.7223 56.1213 60.9629C59.2511 60.6833 62.1485 59.5166 65.1217 58.3554C65.383 58.2532 65.5127 57.9575 65.41 57.6968C65.3084 57.436 65.0128 57.3056 64.7525 57.4078C61.8696 58.5341 59.0644 59.6793 56.0321 59.9494C47.6393 60.6981 39.1865 56.8366 31.7955 51.6269C31.8204 51.5517 31.8463 51.4764 31.8722 51.4011C32.4426 49.7466 32.0807 47.3339 31.1484 44.799C29.7961 41.1189 27.275 37.1647 25.0081 34.9806C23.9627 33.9725 22.9506 33.3394 22.1241 33.2064C21.4355 33.0948 20.8444 33.283 20.3881 33.8166C20.0127 34.2574 19.798 34.8193 19.7348 35.4779C19.6508 36.3569 19.8395 37.4241 20.2367 38.5854C21.7062 42.8824 26.0233 48.5369 28.3639 50.3514C29.0971 50.9199 29.8427 51.4777 30.6019 52.0234C30.4504 52.4992 30.3042 52.9535 30.1248 53.3729C29.8614 53.9885 29.5285 54.5234 28.9664 54.9091C27.9294 55.6215 26.686 55.7425 25.4146 55.557C23.3789 55.2613 21.2737 54.186 19.7213 53.264C10.9894 48.0786 6.67845 39.08 4.35964 30.0518C2.01386 20.9215 1.7069 11.7495 1.01312 6.33963C0.976821 6.0614 0.721711 5.86382 0.443785 5.90011C0.165859 5.93506 -0.0311766 6.19044 0.00408267 6.46867C0.702009 11.9081 1.01727 21.1272 3.37445 30.3045C5.7586 39.584 10.2272 48.8084 19.2028 54.139C20.8548 55.1188 23.102 56.2479 25.2684 56.5637C26.8001 56.7855 28.2924 56.6054 29.541 55.7478C30.269 55.2479 30.719 54.5678 31.0592 53.7734C31.2116 53.4172 31.3423 53.0355 31.4699 52.639ZM30.9316 51.0087C31.4128 49.5248 31.0198 47.3944 30.1943 45.1498C28.8949 41.6136 26.4807 37.8112 24.3029 35.7117C23.5728 35.0088 22.879 34.4994 22.2662 34.2883C21.8233 34.1351 21.4365 34.1539 21.1617 34.4765C20.8454 34.8475 20.7262 35.3542 20.7313 35.9456C20.7365 36.627 20.9097 37.4133 21.199 38.2574C22.6084 42.3783 26.742 47.8084 28.9862 49.5476C29.625 50.0423 30.2742 50.5302 30.9316 51.0087Z" fill="white"/>
<path fill-rule="evenodd" clip-rule="evenodd" d="M65.9531 56.788C65.9189 57.0205 65.8027 57.3162 65.669 57.6267C65.3672 58.3297 64.9379 59.0797 64.747 59.4426C64.6174 59.6912 64.7128 59.999 64.9617 60.1294C65.2106 60.2598 65.5176 60.163 65.6482 59.9143C65.8805 59.4708 66.4488 58.4762 66.7537 57.6523C66.9103 57.2289 66.9943 56.8391 66.9777 56.5582C66.9601 56.2826 66.8481 56.0972 66.6884 55.9654C66.5204 55.827 66.2601 55.745 65.9127 55.7558C65.531 55.7679 64.9866 55.8888 64.3882 55.9332C63.8863 55.9708 63.3377 55.9547 62.8389 55.7047C62.5879 55.5783 62.282 55.6792 62.1565 55.9305C62.031 56.1805 62.1316 56.4869 62.3826 56.6119C63.318 57.0824 64.3799 56.9802 65.2189 56.8592C65.4688 56.823 65.7789 56.7988 65.9531 56.788Z" fill="white"/>
</g>
<defs>
<clipPath id="clip0_119_12292">
<rect width="67.0816" height="67.0816" fill="white"/>
</clipPath>
</defs>
</svg>
