<svg width="162" height="358" viewBox="0 0 162 358" fill="none" xmlns="http://www.w3.org/2000/svg">
<path fill-rule="evenodd" clip-rule="evenodd" d="M140.007 357.27L135.412 355.844C132.481 354.933 129.584 353.968 126.718 352.942C126.065 352.707 125.413 352.473 124.76 352.232C124.108 351.991 123.463 351.747 122.815 351.5C122.693 351.457 122.569 351.411 122.448 351.361C121.784 351.11 121.124 350.855 120.464 350.594C119.804 350.337 119.144 350.073 118.488 349.809C118.432 349.788 118.373 349.763 118.318 349.739C117.788 349.525 117.259 349.308 116.734 349.088C116.526 349.006 116.319 348.92 116.115 348.834C115.487 348.57 114.863 348.306 114.239 348.036C113.554 347.741 112.868 347.446 112.186 347.142C111.523 346.849 110.86 346.552 110.2 346.253C110.166 346.241 110.132 346.225 110.099 346.206C109.467 345.919 108.838 345.629 108.21 345.336C108.164 345.319 108.121 345.299 108.075 345.273C107.419 344.968 106.764 344.656 106.112 344.342C104.774 343.701 103.444 343.048 102.124 342.38L102.509 337.705C103.965 319.999 103.979 302.369 102.6 284.959C96.3789 206.229 61.7639 131.989 4.02864 75.7407L0.635792 72.4346C11.7986 45.1643 28.4439 20.8845 49.1074 0.796008C125.279 65.7105 169.772 164.942 160.033 271.628C158.945 283.537 157.21 295.233 154.861 306.683C151.286 324.151 146.29 341.049 140.007 357.27Z" fill="#3FC493" fill-opacity="0.2"/>
</svg>
