<svg width="319" height="319" viewBox="0 0 319 319" fill="none" xmlns="http://www.w3.org/2000/svg">
<g clip-path="url(#clip0_13_5213)">
<path d="M196.558 63.9402C188.945 99.3122 169.91 129.309 144.098 150.958C142.424 135.287 138.476 119.952 132.394 105.412C136.816 101.287 141.01 96.9175 144.953 92.3214C157.624 77.56 167.711 60.474 174.475 41.6908L174.475 41.6907L174.8 40.787C177.959 41.1769 181.127 41.7096 184.298 42.3921C189.464 43.5039 194.46 44.9724 199.266 46.7654C198.684 52.4724 197.792 58.2028 196.558 63.9402Z" stroke="#357960"/>
<path d="M155.707 140.18C152.015 143.969 148.14 147.564 144.097 150.953C142.422 135.284 138.474 119.95 132.393 105.412C136.618 101.471 140.634 97.3077 144.422 92.9365C150.536 107.785 154.419 123.685 155.707 140.18Z" stroke="#2D6651"/>
<path d="M141.801 86.3093C138.004 90.8792 133.96 95.2208 129.692 99.3144C122.784 84.5227 113.609 70.6539 102.321 58.2207C121.248 45.41 144.337 38.7021 168.314 40.1895C162.074 57.2922 153.027 72.7916 141.825 86.282C141.821 86.2858 141.818 86.2891 141.816 86.2919L141.813 86.2956L141.811 86.2973L141.801 86.3093ZM141.806 86.3047C141.804 86.307 141.805 86.3049 141.808 86.3021L141.806 86.3047Z" stroke="#357960"/>
<path d="M141.617 86.5316C137.873 91.0193 133.89 95.2844 129.691 99.3103C122.783 84.5211 113.61 70.6545 102.324 58.2232C107.194 54.9265 112.343 52.0333 117.709 49.58C127.331 60.7101 135.397 73.1459 141.617 86.5316Z" stroke="#2D6651"/>
<path d="M111.469 237.836C111.778 238.004 112.088 238.169 112.4 238.333L111.469 237.836ZM111.469 237.836C111.159 237.67 110.85 237.5 110.542 237.331L111.469 237.836ZM112.805 237.981L112.805 237.98L112.795 237.975C112.742 237.949 112.691 237.923 112.644 237.896L112.644 237.896L112.632 237.89C112.322 237.727 112.014 237.563 111.707 237.397L111.705 237.396C111.398 237.23 111.09 237.062 110.783 236.893L110.773 236.888C110.757 236.879 110.738 236.868 110.716 236.855L110.716 236.855L110.704 236.849C110.458 236.712 110.212 236.575 109.968 236.436L109.961 236.432C109.867 236.381 109.773 236.328 109.679 236.274C109.386 236.107 109.096 235.941 108.808 235.772L108.807 235.771L108.805 235.77C108.485 235.583 108.168 235.399 107.855 235.211L107.853 235.21C107.545 235.026 107.237 234.842 106.932 234.656L106.917 234.647L106.913 234.645L106.904 234.638L106.885 234.627C106.593 234.448 106.302 234.269 106.011 234.088L105.993 234.076L105.979 234.069L105.967 234.06L105.948 234.048C105.645 233.86 105.343 233.669 105.042 233.476L105.041 233.475C104.518 233.141 103.999 232.804 103.483 232.462L103.885 230.512L103.395 230.411L103.885 230.512C105.668 221.851 106.733 213.14 107.097 204.453C108.751 165.175 96.1046 126.411 70.9545 95.1505L69.6928 93.582C76.6978 81.1385 86.1154 70.4255 97.1997 61.9176C130.522 98.3229 146.315 149.551 135.2 201.199C133.955 206.982 132.405 212.622 130.569 218.105L130.569 218.105C127.821 226.318 124.433 234.18 120.474 241.647L118.723 240.861C118.723 240.861 118.723 240.861 118.723 240.861C117.34 240.24 115.977 239.594 114.633 238.92C114.326 238.766 114.02 238.612 113.716 238.455C113.411 238.298 113.109 238.141 112.805 237.981Z" stroke="#3FC393"/>
<path d="M58.6238 122.836C60.3846 114.655 63.0676 106.907 66.5319 99.6706C94.5103 134.802 107.322 181.371 97.8682 228.462C65.9523 204.148 49.9401 163.186 58.6238 122.836Z" stroke="#3FC393"/>
<path d="M58.153 125.149C62.3445 154.877 77.787 181.933 100.914 200.84C100.723 209.972 99.7262 219.207 97.8678 228.464C66.5611 204.613 50.5568 164.745 58.153 125.149Z" stroke="#319973"/>
<path d="M103.885 230.512L103.885 230.512C105.604 222.16 106.656 213.761 107.055 205.383C114.249 210.566 122.071 215.001 130.421 218.544C127.7 226.598 124.362 234.313 120.474 241.647L118.723 240.861C113.426 238.482 108.307 235.681 103.483 232.463L103.885 230.512Z" stroke="#319973"/>
<path d="M268.692 60.5093C268.182 60.1897 267.887 59.8261 267.808 59.4184C267.73 59.0108 267.877 58.5086 268.251 57.9117C268.548 57.4369 268.946 56.9755 269.447 56.5273C269.952 56.082 270.502 55.7753 271.098 55.607C271.702 55.437 272.277 55.5232 272.824 55.8654C273.163 56.0775 273.39 56.3232 273.505 56.6025C273.619 56.8818 273.58 57.1752 273.388 57.4827C273.266 57.6771 273.132 57.8068 272.984 57.8718C272.84 57.9322 272.686 57.9116 272.523 57.8097C272.36 57.7079 272.268 57.5685 272.247 57.3916C272.354 57.4018 272.477 57.3657 272.616 57.2832C272.756 57.2007 272.867 57.0939 272.949 56.9627C273.025 56.8407 273.054 56.72 273.034 56.6007C273.019 56.4842 272.939 56.3807 272.794 56.2902C272.554 56.1403 272.223 56.1625 271.799 56.3569C271.379 56.5467 270.945 56.8478 270.498 57.2604C270.056 57.6757 269.691 58.114 269.402 58.5752C269.187 58.9189 269.082 59.2179 269.086 59.4723C269.091 59.7267 269.247 59.9501 269.554 60.1424C269.821 60.3093 270.104 60.4046 270.404 60.4285C270.703 60.4523 271.002 60.4066 271.301 60.2914L271.415 60.4568C271.123 60.671 270.808 60.8037 270.467 60.855C270.127 60.9064 269.802 60.8981 269.492 60.8301C269.185 60.7576 268.919 60.6507 268.692 60.5093Z" fill="#357960"/>
<path d="M272.15 62.8075C271.922 62.6405 271.807 62.4503 271.804 62.237C271.802 62.0237 271.878 61.8116 272.032 61.6008C272.099 61.5104 272.183 61.4172 272.287 61.3211C272.393 61.2207 272.497 61.1246 272.597 61.0327C272.702 60.9441 272.769 60.8879 272.8 60.864C272.945 60.7387 273.086 60.6138 273.223 60.4896C273.36 60.3654 273.462 60.2581 273.528 60.1677C273.689 59.9483 273.692 59.7818 273.537 59.6684C273.434 59.5928 273.304 59.5708 273.149 59.6024C272.998 59.6372 272.84 59.7131 272.675 59.8302L270.642 61.6438L269.713 60.9631L273.863 57.2597L274.913 57.8303L273.378 59.195C273.766 59.1159 274.105 59.1819 274.393 59.3931C274.613 59.5538 274.743 59.7417 274.784 59.9567C274.824 60.1717 274.755 60.4018 274.575 60.6471C274.484 60.7719 274.366 60.9007 274.223 61.0335C274.082 61.162 273.904 61.3155 273.687 61.494C273.555 61.6022 273.427 61.7098 273.302 61.8168C273.185 61.9227 273.1 62.0122 273.046 62.0853C272.983 62.1714 272.953 62.2523 272.957 62.3279C272.962 62.4036 273.011 62.4761 273.106 62.5455C273.209 62.6211 273.289 62.6602 273.347 62.6627C273.16 62.8633 272.959 62.9706 272.744 62.9848C272.533 63.0021 272.335 62.943 272.15 62.8075Z" fill="#357960"/>
<path d="M278.716 60.403L278.843 60.5129L278.217 61.9707L278.024 61.8033L278.079 61.0052L276.71 60.6682L276.444 60.438L278.716 60.403ZM273.26 63.6817C273.03 63.4829 272.906 63.2386 272.889 62.9487C272.872 62.6588 273.008 62.3464 273.297 62.0115C273.555 61.7129 273.884 61.4507 274.284 61.225C274.691 60.9987 275.109 60.8737 275.538 60.85C275.975 60.8258 276.357 60.9549 276.684 61.2373C276.849 61.3803 276.948 61.5149 276.98 61.6412C277.011 61.7674 276.987 61.8769 276.907 61.9697L276.87 62.0121L277.214 61.7488L278.086 62.5021L275.872 64.1834C275.803 64.23 275.739 64.2876 275.68 64.3562C275.53 64.5297 275.538 64.688 275.703 64.831C275.816 64.9286 275.958 64.9598 276.13 64.9247C276.305 64.893 276.49 64.8133 276.685 64.6857L276.939 64.9054C276.414 65.2122 275.972 65.3483 275.614 65.3139C275.263 65.2789 274.977 65.1656 274.755 64.9738C274.586 64.8273 274.489 64.6623 274.464 64.4788C274.447 64.2948 274.506 64.1033 274.643 63.9043C274.383 63.9686 274.135 63.9904 273.899 63.9698C273.671 63.9486 273.458 63.8526 273.26 63.6817ZM274.161 63.4346C274.262 63.5218 274.401 63.5608 274.578 63.5517C274.762 63.542 274.944 63.4702 275.124 63.3361L276.596 62.2192C276.642 62.1668 276.665 62.0989 276.667 62.0156C276.672 61.9283 276.632 61.848 276.547 61.7748C276.386 61.6353 276.158 61.6046 275.865 61.6826C275.576 61.7567 275.28 61.8954 274.977 62.099C274.677 62.2985 274.441 62.4992 274.266 62.7009C274.092 62.9027 274.009 63.0562 274.016 63.1615C274.028 63.2703 274.076 63.3614 274.161 63.4346Z" fill="#357960"/>
<path d="M276.236 66.3583C276.057 66.1753 275.969 65.9706 275.971 65.7444C275.978 65.5219 276.095 65.2988 276.324 65.0751C276.419 64.9818 276.558 64.8759 276.74 64.7572L278.957 63.3504L279.762 64.1739L277.415 65.6641C277.358 65.6975 277.305 65.7384 277.255 65.7868C277.087 65.9509 277.059 66.0902 277.171 66.2046C277.276 66.3113 277.409 66.3599 277.571 66.3504C277.737 66.3371 277.921 66.2769 278.122 66.1698L280.338 64.763L281.144 65.5865L278.797 67.0767C278.724 67.1174 278.656 67.1695 278.591 67.2329C278.515 67.3074 278.476 67.3787 278.476 67.4466C278.483 67.5145 278.527 67.5904 278.609 67.6743C278.669 67.7353 278.715 67.7754 278.749 67.7947C278.79 67.814 278.817 67.8256 278.828 67.8295C278.619 68.0044 278.406 68.0813 278.192 68.0601C277.977 68.0388 277.786 67.9424 277.618 67.7709C277.461 67.6107 277.382 67.4345 277.38 67.2421C277.383 67.0536 277.46 66.8659 277.613 66.679C277.276 66.7545 276.999 66.7571 276.781 66.6868C276.567 66.6203 276.385 66.5108 276.236 66.3583Z" fill="#357960"/>
<path d="M284.805 68.0376L284.747 67.9618C284.455 67.5872 284.133 67.3684 283.779 67.3054C283.434 67.2433 283.023 67.3973 282.547 67.7675C282.392 67.8887 282.294 67.9886 282.254 68.0672C282.218 68.1425 282.195 68.1835 282.187 68.19C282.01 67.9627 281.924 67.7563 281.928 67.5706C281.94 67.3858 282.055 67.2082 282.274 67.0379C282.572 66.8053 282.901 66.6677 283.26 66.625C283.623 66.579 284.005 66.657 284.405 66.8589C284.809 67.0651 285.204 67.4165 285.591 67.9131C285.807 68.1909 286.014 68.5093 286.213 68.8685C286.376 69.1739 286.54 69.4318 286.703 69.6423C286.913 69.9116 287.147 70.1213 287.406 70.2714C287.126 70.4759 286.87 70.5637 286.638 70.5348C286.406 70.5059 286.19 70.363 285.99 70.1063C285.885 69.9716 285.791 69.8288 285.707 69.6777C285.623 69.5266 285.51 69.3073 285.367 69.0197L280.636 71.3031L279.928 70.394L284.805 68.0376Z" fill="#357960"/>
<path d="M282.632 74.2513C282.475 74.0165 282.431 73.7985 282.502 73.5971C282.572 73.3958 282.716 73.2223 282.933 73.0768C283.026 73.0144 283.137 72.9557 283.267 72.9006C283.402 72.8426 283.532 72.7875 283.658 72.7354C283.786 72.6878 283.869 72.658 283.906 72.646C284.085 72.5775 284.26 72.5083 284.431 72.4383C284.603 72.3684 284.735 72.3022 284.828 72.2398C285.054 72.0883 285.113 71.9329 285.006 71.7734C284.935 71.6671 284.821 71.6023 284.664 71.579C284.51 71.5602 284.336 71.5777 284.141 71.6314L281.612 72.6431L280.97 71.6863L286.135 69.6204L286.927 70.5148L285.018 71.2741C285.41 71.3323 285.706 71.5098 285.905 71.8066C286.056 72.0325 286.115 72.2535 286.08 72.4695C286.045 72.6856 285.901 72.8783 285.649 73.0475C285.52 73.1337 285.366 73.2147 285.186 73.2906C285.01 73.3635 284.79 73.4469 284.525 73.5408C284.364 73.5975 284.207 73.6548 284.053 73.7129C283.907 73.7724 283.796 73.8275 283.72 73.878C283.632 73.9374 283.577 74.0033 283.555 74.0759C283.533 74.1484 283.554 74.2334 283.62 74.3309C283.691 74.4372 283.753 74.5014 283.806 74.5234C283.563 74.6483 283.337 74.6807 283.13 74.6206C282.926 74.5649 282.76 74.4418 282.632 74.2513Z" fill="#357960"/>
<path d="M289.103 73.3084L289.51 74.0433L288.3 74.9786L288.009 74.4537L289.103 73.3084ZM283.44 75.566C283.293 75.3 283.261 75.028 283.345 74.7499C283.429 74.4719 283.664 74.2256 284.052 74.0112C284.397 73.8201 284.796 73.6875 285.249 73.6136C285.709 73.5417 286.145 73.5688 286.556 73.6948C286.974 73.8228 287.288 74.0758 287.497 74.4537C287.603 74.645 287.649 74.8054 287.635 74.9349C287.622 75.0644 287.561 75.1588 287.454 75.2183L287.405 75.2454L287.819 75.117L288.377 76.1248L285.718 76.9384C285.638 76.9585 285.558 76.9905 285.479 77.0344C285.278 77.1455 285.231 77.2967 285.336 77.488C285.409 77.6186 285.531 77.697 285.704 77.7232C285.88 77.754 286.081 77.7432 286.308 77.6907L286.471 77.9846C285.871 78.091 285.41 78.0662 285.086 77.9103C284.769 77.7565 284.539 77.5513 284.397 77.2947C284.289 77.0987 284.255 76.9104 284.295 76.7296C284.342 76.551 284.464 76.3919 284.661 76.2523C284.395 76.2229 284.155 76.1578 283.941 76.057C283.734 75.9583 283.567 75.7946 283.44 75.566ZM284.371 75.645C284.436 75.7617 284.552 75.8463 284.722 75.8988C284.898 75.9535 285.094 75.9489 285.308 75.8849L287.076 75.3451C287.137 75.3116 287.182 75.2559 287.212 75.1783C287.247 75.098 287.238 75.0089 287.183 74.9109C287.08 74.7243 286.877 74.617 286.575 74.5891C286.278 74.5587 285.952 74.5867 285.598 74.6732C285.248 74.7571 284.956 74.8637 284.723 74.9928C284.49 75.122 284.359 75.2373 284.329 75.3388C284.303 75.445 284.317 75.547 284.371 75.645Z" fill="#357960"/>
<path d="M286.092 80.839C285.975 80.5815 285.968 80.3592 286.071 80.1723C286.174 79.9853 286.344 79.8379 286.582 79.7302C286.684 79.684 286.804 79.6445 286.941 79.6116C287.083 79.5765 287.221 79.5436 287.353 79.5129C287.488 79.4871 287.574 79.4714 287.613 79.4657C287.8 79.4276 287.985 79.3882 288.165 79.3474C288.346 79.3067 288.487 79.2632 288.589 79.217C288.837 79.1049 288.921 78.9613 288.842 78.7864C288.785 78.6601 288.671 78.5769 288.501 78.5369C288.335 78.4947 288.14 78.4895 287.914 78.5214L285.35 79.0846L284.875 78.0351L288.869 77.1584L289.344 78.2079L288.929 78.2992C289.311 78.419 289.576 78.6417 289.723 78.9673C289.835 79.2151 289.856 79.4426 289.786 79.65C289.716 79.8573 289.543 80.0237 289.266 80.149C289.125 80.2128 288.959 80.2672 288.769 80.3124C288.583 80.3553 288.352 80.4013 288.076 80.4503C287.908 80.4796 287.743 80.5102 287.582 80.5422C287.428 80.5768 287.309 80.6128 287.227 80.6502C287.13 80.6942 287.064 80.7501 287.031 80.818C286.997 80.886 287.004 80.9734 287.053 81.0803C287.106 81.1969 287.156 81.2704 287.205 81.301C286.944 81.384 286.717 81.3788 286.522 81.2853C286.33 81.1967 286.186 81.048 286.092 80.839Z" fill="#357960"/>
<path d="M287.265 83.9157C287.167 83.6504 287.176 83.4282 287.292 83.2492C287.409 83.0702 287.589 82.9356 287.835 82.8455C287.94 82.8069 288.062 82.7762 288.201 82.7534C288.346 82.7288 288.485 82.706 288.619 82.685C288.755 82.6691 288.843 82.6597 288.882 82.6568C289.072 82.6325 289.258 82.6066 289.441 82.5791C289.624 82.5516 289.768 82.5186 289.874 82.4799C290.129 82.3862 290.223 82.2491 290.157 82.0689C290.113 81.9488 290.018 81.8589 289.871 81.7992C289.726 81.7445 289.552 81.7203 289.35 81.7264L286.653 82.1119L286.256 81.0306L291.762 80.2435L292.321 81.2997L290.287 81.5866C290.654 81.7358 290.899 81.9781 291.023 82.3135C291.116 82.5688 291.121 82.7973 291.036 82.999C290.951 83.2007 290.766 83.3539 290.48 83.4588C290.335 83.5121 290.166 83.5543 289.973 83.5855C289.785 83.6148 289.551 83.6439 289.272 83.6726C289.102 83.6895 288.935 83.7081 288.772 83.7282C288.616 83.7515 288.496 83.7788 288.41 83.8101C288.31 83.8468 288.241 83.8979 288.202 83.9632C288.164 84.0285 288.165 84.1162 288.205 84.2263C288.25 84.3465 288.295 84.4235 288.342 84.4576C288.075 84.5213 287.848 84.4995 287.661 84.3921C287.476 84.2898 287.344 84.131 287.265 83.9157Z" fill="#357960"/>
<path d="M290.392 85.7402L290.788 87.2903L290.142 87.3151L289.744 85.7572L290.392 85.7402Z" fill="#357960"/>
<path d="M294.631 91.239C294.436 90.9041 294.178 90.6582 293.857 90.5013C293.535 90.3497 293.166 90.3013 292.748 90.356C292.553 90.3816 292.418 90.4182 292.343 90.4656C292.274 90.5123 292.234 90.5363 292.223 90.5377C292.186 90.2522 292.216 90.0304 292.314 89.8723C292.417 89.7189 292.607 89.6242 292.882 89.5882C293.22 89.5439 293.566 89.6384 293.919 89.8719C294.279 90.1099 294.584 90.4329 294.837 90.8409C295.095 91.2482 295.252 91.6687 295.309 92.1023C295.318 92.1763 295.327 92.2828 295.334 92.4217L292.904 92.2236L293.057 93.3896L295.487 93.5877L295.637 94.73L289.538 94.2458L289.389 93.1036L292.454 93.3475L292.302 92.1815L289.236 91.9375L289.086 90.7953L294.631 91.239Z" fill="#357960"/>
<path d="M295.703 97.6796L295.708 97.8475L294.212 98.3748L294.204 98.1189L294.829 97.6191L294.15 96.3838L294.139 96.032L295.703 97.6796ZM289.596 95.8867C289.586 95.5828 289.682 95.3263 289.884 95.1172C290.085 94.9081 290.407 94.7966 290.85 94.7827C291.244 94.7703 291.66 94.8346 292.096 94.9756C292.539 95.1218 292.914 95.3448 293.222 95.6446C293.536 95.9495 293.699 96.3179 293.713 96.7497C293.72 96.9683 293.688 97.132 293.616 97.241C293.545 97.3499 293.448 97.4063 293.325 97.4102L293.27 97.412L293.696 97.4866L293.732 98.638L290.996 98.1478C290.915 98.129 290.829 98.121 290.739 98.1239C290.509 98.1311 290.398 98.2439 290.405 98.4625C290.41 98.6118 290.483 98.7375 290.625 98.8398C290.767 98.9474 290.951 99.0296 291.177 99.0865L291.188 99.4224C290.606 99.2432 290.206 99.0104 289.989 98.7237C289.777 98.4422 289.667 98.1549 289.658 97.8617C289.651 97.6378 289.706 97.4546 289.825 97.3122C289.948 97.1749 290.13 97.0891 290.369 97.0549C290.145 96.9072 289.961 96.7396 289.817 96.552C289.678 96.3697 289.604 96.1479 289.596 95.8867ZM290.388 96.382C290.392 96.5153 290.457 96.644 290.584 96.768C290.716 96.8973 290.892 96.9825 291.112 97.0236L292.931 97.3506C293.001 97.3484 293.067 97.3196 293.129 97.2643C293.196 97.2088 293.228 97.1251 293.225 97.0132C293.218 96.7999 293.087 96.612 292.831 96.4493C292.58 96.2864 292.278 96.1625 291.923 96.0776C291.573 95.9926 291.265 95.9542 290.999 95.9626C290.732 95.971 290.563 96.0137 290.491 96.0906C290.418 96.1729 290.384 96.2701 290.388 96.382ZM287.808 96.319C287.803 96.1485 287.86 95.9973 287.978 95.8655C288.097 95.739 288.244 95.673 288.42 95.6675C288.596 95.662 288.75 95.7185 288.882 95.8371C289.008 95.9612 289.074 96.1085 289.08 96.2791C289.085 96.455 289.029 96.6088 288.91 96.7406C288.786 96.8726 288.636 96.9413 288.461 96.9469C288.285 96.9524 288.133 96.8931 288.007 96.769C287.88 96.645 287.814 96.495 287.808 96.319Z" fill="#357960"/>
<path d="M289.638 99.858C289.65 99.6023 289.741 99.3986 289.908 99.2467C290.076 99.1002 290.319 99.0349 290.639 99.0508C290.772 99.0574 290.944 99.0873 291.155 99.1405L293.693 99.8114L293.636 100.962L290.948 100.252C290.885 100.232 290.818 100.221 290.749 100.218C290.515 100.206 290.394 100.28 290.386 100.44C290.378 100.589 290.433 100.72 290.55 100.833C290.673 100.945 290.842 101.039 291.057 101.114L293.595 101.785L293.538 102.936L290.85 102.225C290.771 102.2 290.686 102.185 290.595 102.18C290.489 102.175 290.411 102.195 290.36 102.241C290.315 102.292 290.289 102.376 290.284 102.493C290.279 102.579 290.282 102.64 290.29 102.678C290.304 102.721 290.314 102.748 290.318 102.759C290.048 102.725 289.847 102.621 289.717 102.449C289.587 102.277 289.528 102.071 289.539 101.832C289.551 101.608 289.626 101.43 289.766 101.298C289.906 101.172 290.096 101.101 290.338 101.086C290.054 100.891 289.863 100.689 289.767 100.481C289.67 100.279 289.627 100.071 289.638 99.858Z" fill="#357960"/>
<path d="M287.458 105.528C287.525 105.145 287.679 104.852 287.919 104.65C288.154 104.453 288.432 104.383 288.752 104.438C288.952 104.473 289.128 104.553 289.279 104.677C289.431 104.8 289.54 104.952 289.606 105.131C289.677 105.312 289.696 105.499 289.662 105.694C289.627 105.893 289.549 106.045 289.428 106.148C289.307 106.257 289.164 106.297 289.001 106.269C288.875 106.247 288.781 106.2 288.717 106.13C288.788 106.093 288.85 106.036 288.901 105.959C288.952 105.886 288.985 105.805 289 105.716C289.028 105.558 288.998 105.421 288.91 105.302C288.822 105.184 288.695 105.111 288.526 105.081C288.358 105.052 288.213 105.075 288.092 105.152C287.969 105.233 287.895 105.347 287.87 105.494C287.838 105.678 287.891 105.85 288.031 106.01C288.171 106.17 288.396 106.312 288.704 106.436L290.377 107.134L290.383 107.102C290.208 106.926 290.086 106.726 290.016 106.502C289.946 106.284 289.932 106.055 289.974 105.813C290.027 105.508 290.156 105.254 290.359 105.052C290.562 104.849 290.824 104.711 291.146 104.637C291.472 104.569 291.834 104.57 292.233 104.64C292.811 104.741 293.315 104.958 293.744 105.293C294.178 105.629 294.493 106.041 294.689 106.53C294.885 107.019 294.937 107.529 294.844 108.06C294.767 108.506 294.608 108.841 294.369 109.065C294.128 109.294 293.84 109.379 293.504 109.32C293.278 109.28 293.106 109.194 292.989 109.06C292.872 108.925 292.829 108.769 292.86 108.59C292.877 108.49 292.915 108.4 292.972 108.318C293.029 108.241 293.102 108.18 293.191 108.136C293.237 108.242 293.323 108.338 293.449 108.425C293.579 108.518 293.715 108.577 293.857 108.602C294.014 108.629 294.143 108.603 294.244 108.523C294.349 108.45 294.416 108.329 294.445 108.16C294.498 107.856 294.413 107.538 294.189 107.206C293.971 106.876 293.659 106.586 293.253 106.336C292.847 106.087 292.405 105.92 291.927 105.837C291.533 105.768 291.22 105.779 290.988 105.868C290.761 105.958 290.627 106.122 290.586 106.358C290.536 106.642 290.642 106.918 290.904 107.185C291.165 107.458 291.57 107.71 292.12 107.942L291.95 108.87L289.402 107.833C288.649 107.528 288.115 107.189 287.802 106.814C287.487 106.446 287.372 106.017 287.458 105.528Z" fill="#357960"/>
<path d="M292.643 110.452C292.684 110.28 292.778 110.15 292.927 110.059C293.075 109.969 293.234 109.944 293.405 109.985C293.576 110.027 293.707 110.121 293.797 110.269C293.893 110.419 293.92 110.579 293.879 110.75C293.838 110.921 293.74 111.051 293.587 111.14C293.438 111.236 293.278 111.263 293.107 111.222C292.936 111.181 292.805 111.083 292.716 110.93C292.626 110.782 292.601 110.623 292.643 110.452ZM288.415 108.872C288.475 108.623 288.602 108.439 288.795 108.321C288.987 108.208 289.238 108.19 289.549 108.265C289.679 108.296 289.842 108.357 290.04 108.449L292.408 109.58L292.138 110.7L289.629 109.502C289.556 109.462 289.476 109.432 289.388 109.411C289.284 109.386 289.203 109.391 289.145 109.426C289.091 109.468 289.051 109.546 289.023 109.66C289.001 109.754 288.996 109.84 289.01 109.92C288.756 109.837 288.578 109.696 288.479 109.496C288.383 109.303 288.361 109.094 288.415 108.872Z" fill="#357960"/>
<path d="M287.971 110.585C288.057 110.294 288.23 110.081 288.487 109.946C288.744 109.811 289.085 109.807 289.509 109.934C289.887 110.047 290.261 110.239 290.631 110.511C291.004 110.789 291.29 111.119 291.488 111.501C291.689 111.889 291.728 112.291 291.604 112.705C291.542 112.914 291.459 113.059 291.357 113.14C291.255 113.221 291.146 113.244 291.028 113.209L290.974 113.193L291.355 113.398L291.026 114.502L288.584 113.173C288.514 113.129 288.435 113.095 288.348 113.069C288.246 113.038 288.165 113.039 288.105 113.072C288.049 113.11 288.004 113.186 287.971 113.299C287.949 113.37 287.943 113.429 287.951 113.476C287.698 113.278 287.529 113.111 287.442 112.974C287.36 112.838 287.348 112.673 287.406 112.479C287.468 112.269 287.58 112.116 287.743 112.02C287.909 111.93 288.109 111.904 288.343 111.94C287.96 111.487 287.836 111.035 287.971 110.585ZM288.565 111.305C288.527 111.433 288.549 111.576 288.63 111.734C288.714 111.898 288.854 112.034 289.05 112.143L290.673 113.028C290.739 113.048 290.811 113.041 290.887 113.008C290.969 112.977 291.026 112.908 291.058 112.8C291.119 112.596 291.054 112.376 290.862 112.141C290.676 111.907 290.428 111.694 290.118 111.502C289.813 111.31 289.533 111.177 289.278 111.1C289.022 111.024 288.848 111.011 288.755 111.061C288.661 111.117 288.597 111.198 288.565 111.305Z" fill="#357960"/>
<path d="M286.317 115.388C286.419 115.125 286.572 114.963 286.777 114.905C286.982 114.847 287.207 114.864 287.451 114.958C287.556 114.998 287.668 115.055 287.788 115.13C287.913 115.206 288.032 115.281 288.147 115.354C288.26 115.431 288.332 115.482 288.363 115.505C288.522 115.612 288.68 115.715 288.836 115.815C288.992 115.915 289.122 115.985 289.227 116.025C289.481 116.122 289.642 116.081 289.711 115.902C289.76 115.773 289.74 115.633 289.648 115.484C289.562 115.337 289.428 115.194 289.247 115.056L287.044 113.628L287.457 112.552L290.888 114.777L290.475 115.853L290.118 115.621C290.302 115.977 290.329 116.322 290.201 116.656C290.104 116.91 289.957 117.085 289.76 117.181C289.563 117.276 289.323 117.27 289.039 117.161C288.895 117.106 288.74 117.026 288.574 116.922C288.413 116.821 288.218 116.689 287.989 116.527C287.85 116.428 287.712 116.332 287.576 116.24C287.443 116.155 287.334 116.096 287.25 116.063C287.15 116.025 287.064 116.018 286.992 116.042C286.92 116.065 286.863 116.132 286.821 116.242C286.775 116.361 286.759 116.449 286.772 116.505C286.529 116.378 286.373 116.212 286.302 116.008C286.23 115.809 286.235 115.603 286.317 115.388Z" fill="#357960"/>
<path d="M283.76 116.342C283.866 116.115 284.035 115.95 284.267 115.846C284.491 115.745 284.716 115.748 284.943 115.855C285.156 115.955 285.304 116.089 285.39 116.259C285.475 116.429 285.516 116.616 285.514 116.821C285.512 117.027 285.488 117.292 285.441 117.618L285.714 117.826C285.562 117.448 285.563 117.095 285.717 116.766C285.846 116.491 286.048 116.306 286.323 116.211C286.597 116.116 286.935 116.163 287.335 116.351C287.692 116.519 288.034 116.765 288.359 117.089C288.686 117.42 288.92 117.789 289.058 118.196C289.2 118.61 289.178 119.012 288.995 119.403C288.902 119.601 288.799 119.732 288.686 119.797C288.573 119.862 288.461 119.868 288.35 119.816L288.335 119.809L288.649 120.045L288.155 121.095L284.371 118.238C283.953 117.923 283.713 117.601 283.65 117.271C283.585 116.946 283.621 116.636 283.76 116.342ZM286.198 117.567C286.146 117.678 286.14 117.811 286.179 117.965C286.221 118.126 286.318 118.272 286.469 118.402L288.047 119.594C288.235 119.635 288.365 119.576 288.44 119.417C288.531 119.224 288.499 118.996 288.345 118.735C288.196 118.477 287.982 118.229 287.704 117.992C287.431 117.758 287.174 117.584 286.933 117.471C286.692 117.357 286.521 117.318 286.422 117.354C286.32 117.395 286.246 117.466 286.198 117.567ZM284.482 116.478C284.442 116.565 284.449 116.668 284.504 116.789C284.555 116.907 284.669 117.034 284.846 117.171L285.233 117.458C285.266 117.162 285.258 116.916 285.208 116.722C285.158 116.527 285.041 116.387 284.857 116.301C284.8 116.273 284.733 116.277 284.657 116.313C284.577 116.346 284.519 116.401 284.482 116.478Z" fill="#357960"/>
</g>
<defs>
<clipPath id="clip0_13_5213">
<rect width="267.957" height="267.957" fill="white" transform="translate(318.336 56.377) rotate(102.146)"/>
</clipPath>
</defs>
</svg>
