<svg width="251" height="251" viewBox="0 0 251 251" fill="none" xmlns="http://www.w3.org/2000/svg">
<g clip-path="url(#clip0_13_5333)">
<path d="M93.2018 196.375C100.319 169.813 115.879 147.75 136.264 132.256C136.961 144.169 139.375 155.914 143.419 167.142C139.912 170.105 136.568 173.261 133.404 176.596C123.178 187.374 114.834 200.023 108.96 214.093L108.96 214.093L108.714 214.682C106.357 214.268 103.998 213.748 101.641 213.117C97.7827 212.083 94.0655 210.788 90.5022 209.257C91.1605 204.964 92.0521 200.666 93.2018 196.375Z" stroke="#357960"/>
<path d="M127.233 139.849C130.122 137.169 133.136 134.637 136.265 132.259C136.962 144.171 139.376 155.915 143.419 167.142C140.119 169.93 136.963 172.889 133.966 176.009C129.92 164.542 127.591 152.371 127.233 139.849Z" stroke="#2D6651"/>
<path d="M135.751 181.459C138.778 178.165 141.979 175.05 145.338 172.127C150.023 183.575 156.443 194.413 164.504 204.253C149.682 213.209 131.965 217.411 113.878 215.417C119.273 202.693 126.726 191.287 135.731 181.48C135.734 181.477 135.737 181.475 135.739 181.473L135.739 181.472L135.74 181.471L135.751 181.459ZM135.749 181.461C135.75 181.46 135.748 181.462 135.745 181.465L135.749 181.461Z" stroke="#357960"/>
<path d="M135.951 181.242C138.919 178.029 142.054 174.988 145.339 172.13C150.024 183.576 156.443 194.412 164.502 204.251C160.731 206.53 156.771 208.501 152.666 210.141C145.804 201.34 140.163 191.615 135.951 181.242Z" stroke="#2D6651"/>
<path d="M163.462 67.0033L163.462 67.0034L163.473 67.0093C163.51 67.0305 163.547 67.0516 163.58 67.0725L163.58 67.0726L163.591 67.079C163.821 67.2147 164.049 67.351 164.276 67.4893L164.278 67.4904C164.505 67.6277 164.733 67.7675 164.96 67.9081L164.97 67.9136C164.979 67.9193 164.992 67.9273 165.007 67.9374L165.007 67.9375L165.018 67.9445C165.201 68.0574 165.382 68.1713 165.562 68.286L165.57 68.2906C165.638 68.3325 165.707 68.376 165.777 68.4204C165.993 68.5591 166.207 68.6964 166.42 68.8358L166.421 68.8365C166.659 68.991 166.893 69.1433 167.124 69.2985L167.126 69.2996C167.353 69.4509 167.58 69.6031 167.806 69.7561L167.818 69.7643L167.822 69.7678L167.84 69.7802C168.056 69.9268 168.27 70.0744 168.485 70.2233L168.502 70.2357L168.508 70.2388L168.513 70.2432L168.532 70.256C168.754 70.4105 168.977 70.5675 169.198 70.7256L169.199 70.7262C169.563 70.9846 169.924 71.2453 170.282 71.5088L169.922 72.9017L169.922 72.9018C168.233 79.4406 167.089 86.0445 166.481 92.6564C163.725 122.554 171.897 152.603 189.892 177.403L190.747 178.582C184.97 187.723 177.445 195.472 168.747 201.502C144.811 172.529 134.762 132.969 145.174 94.1103C146.341 89.7547 147.735 85.5196 149.342 81.4158L149.342 81.4156C151.731 75.3028 154.589 69.4784 157.863 63.9721L159.069 64.5871C159.069 64.5871 159.069 64.5872 159.069 64.5872C160.098 65.1124 161.11 65.6554 162.107 66.2188C162.336 66.3485 162.562 66.477 162.788 66.6076C163.014 66.7384 163.237 66.8699 163.462 67.0033ZM167.805 69.7539L167.806 69.755L167.805 69.7539Z" stroke="#3FC393"/>
<path d="M200.322 156.674C198.689 162.769 196.384 168.506 193.516 173.834C173.665 146.096 165.718 110.3 174.612 74.9354C197.874 94.6567 208.443 126.365 200.322 156.674Z" stroke="#3FC393"/>
<path d="M200.934 154.239C198.711 131.685 188.022 110.751 171.295 95.6063C171.785 88.742 172.878 81.8304 174.613 74.9343C197.253 94.1282 207.869 124.676 200.934 154.239Z" stroke="#319973"/>
<path d="M169.922 72.9017L169.922 72.9018C168.312 79.1358 167.197 85.429 166.569 91.7318C161.352 87.5827 155.643 83.9644 149.511 80.9849C151.866 75.029 154.667 69.3489 157.863 63.972L159.069 64.5871C159.069 64.5871 159.069 64.5871 159.069 64.5871C162.986 66.5862 166.752 68.896 170.282 71.508L169.922 72.9017Z" stroke="#319973"/>
<path d="M49.7876 195.826C50.282 196.171 50.5582 196.549 50.6163 196.96C50.6743 197.371 50.502 197.865 50.0994 198.443C49.7792 198.902 49.358 199.343 48.8358 199.766C48.3093 200.185 47.7442 200.464 47.1407 200.603C46.5297 200.742 45.9595 200.628 45.4301 200.259C45.102 200.03 44.8876 199.773 44.787 199.488C44.6864 199.204 44.7397 198.913 44.9471 198.615C45.0783 198.427 45.2192 198.304 45.3698 198.247C45.5174 198.194 45.6699 198.222 45.8274 198.332C45.9849 198.441 46.07 198.585 46.0826 198.763C45.9764 198.748 45.8514 198.777 45.7078 198.853C45.5642 198.928 45.4482 199.029 45.3598 199.156C45.2774 199.274 45.2431 199.394 45.2569 199.514C45.2663 199.631 45.341 199.738 45.481 199.836C45.7129 199.997 46.0452 199.992 46.4779 199.819C46.9075 199.65 47.3556 199.371 47.8224 198.981C48.2847 198.588 48.6715 198.169 48.9826 197.722C49.2144 197.39 49.3344 197.097 49.3426 196.842C49.3509 196.588 49.2062 196.357 48.9087 196.15C48.6506 195.97 48.3725 195.86 48.0744 195.822C47.7764 195.783 47.4754 195.814 47.1715 195.914L47.0663 195.743C47.3678 195.544 47.6898 195.427 48.0323 195.392C48.3748 195.358 48.699 195.383 49.005 195.466C49.308 195.554 49.5688 195.674 49.7876 195.826Z" fill="#357960"/>
<path d="M46.4486 193.359C46.668 193.537 46.7736 193.733 46.7654 193.946C46.7572 194.159 46.6707 194.367 46.506 194.57C46.4354 194.657 46.3461 194.746 46.238 194.837C46.1265 194.932 46.0184 195.022 45.9136 195.109C45.8048 195.192 45.7344 195.245 45.7026 195.268C45.5518 195.386 45.4048 195.503 45.2615 195.62C45.1182 195.738 45.0113 195.84 44.9407 195.927C44.7692 196.138 44.758 196.304 44.9071 196.425C45.0065 196.506 45.1345 196.534 45.2913 196.51C45.4439 196.483 45.6056 196.415 45.7763 196.306L47.8964 194.596L48.7908 195.322L44.4613 198.814L43.4412 198.192L45.0423 196.906C44.6504 196.965 44.3157 196.883 44.0383 196.657C43.8271 196.486 43.7065 196.292 43.6764 196.075C43.6464 195.858 43.7271 195.632 43.9187 195.396C44.0162 195.276 44.14 195.153 44.29 195.027C44.4366 194.906 44.6226 194.762 44.8479 194.594C44.9852 194.493 45.1188 194.392 45.2486 194.291C45.371 194.191 45.4607 194.106 45.5178 194.036C45.5851 193.953 45.6186 193.873 45.6183 193.798C45.618 193.722 45.5723 193.647 45.4812 193.573C45.3818 193.492 45.3034 193.449 45.246 193.444C45.4423 193.253 45.6483 193.156 45.8641 193.152C46.0757 193.145 46.2705 193.214 46.4486 193.359Z" fill="#357960"/>
<path d="M39.7714 195.433L39.65 195.317L40.3473 193.892L40.5324 194.069L40.4374 194.864L41.7877 195.268L42.0422 195.511L39.7714 195.433ZM45.3837 192.43C45.6035 192.64 45.7148 192.891 45.7177 193.181C45.7206 193.471 45.5691 193.777 45.2634 194.097C44.9908 194.382 44.6493 194.627 44.2391 194.833C43.8213 195.039 43.3974 195.143 42.9675 195.145C42.5299 195.148 42.155 195 41.8426 194.701C41.6845 194.55 41.5926 194.411 41.5671 194.283C41.5415 194.155 41.5711 194.047 41.6559 193.959L41.6945 193.918L41.338 194.164L40.505 193.368L42.8003 191.799C42.871 191.756 42.9377 191.702 43.0003 191.636C43.1587 191.47 43.1588 191.312 43.0007 191.161C42.8927 191.058 42.7523 191.019 42.5794 191.046C42.4026 191.069 42.2137 191.139 42.0127 191.257L41.7697 191.025C42.3103 190.745 42.7585 190.631 43.1143 190.683C43.4625 190.735 43.7427 190.863 43.9548 191.065C44.1168 191.22 44.2055 191.39 44.2211 191.574C44.2291 191.759 44.1598 191.947 44.0133 192.139C44.2762 192.088 44.525 192.078 44.7596 192.111C44.9867 192.143 45.1947 192.25 45.3837 192.43ZM44.4716 192.632C44.3752 192.54 44.2384 192.494 44.0611 192.495C43.8762 192.495 43.691 192.558 43.5052 192.683L41.9787 193.725C41.9308 193.775 41.904 193.842 41.8984 193.925C41.8891 194.012 41.9249 194.094 42.0059 194.171C42.1601 194.319 42.3856 194.361 42.6821 194.297C42.975 194.238 43.2777 194.114 43.5902 193.926C43.8991 193.741 44.1457 193.553 44.3299 193.36C44.514 193.167 44.6049 193.018 44.6025 192.912C44.5962 192.803 44.5526 192.71 44.4716 192.632Z" fill="#357960"/>
<path d="M42.5446 189.609C42.7143 189.801 42.7922 190.009 42.7785 190.235C42.7612 190.457 42.6327 190.674 42.3931 190.886C42.2933 190.974 42.1493 191.073 41.9613 191.183L39.6778 192.478L38.9143 191.615L41.3328 190.243C41.3913 190.213 41.4465 190.175 41.4985 190.129C41.6742 189.973 41.709 189.836 41.603 189.716C41.504 189.604 41.3732 189.549 41.2107 189.55C41.0441 189.555 40.8578 189.606 40.6516 189.703L38.3681 190.998L37.6046 190.135L40.0231 188.764C40.0972 188.727 40.1681 188.678 40.236 188.618C40.3159 188.547 40.3579 188.478 40.362 188.41C40.3586 188.342 40.318 188.264 40.2403 188.176C40.1837 188.112 40.1391 188.07 40.1063 188.049C40.0661 188.028 40.0404 188.015 40.0293 188.01C40.2472 187.846 40.4628 187.78 40.6762 187.812C40.8896 187.844 41.0759 187.949 41.2349 188.129C41.3834 188.297 41.4537 188.477 41.4457 188.669C41.4343 188.857 41.3475 189.041 41.1855 189.22C41.5253 189.161 41.8023 189.173 42.0165 189.254C42.2272 189.331 42.4032 189.449 42.5446 189.609Z" fill="#357960"/>
<path d="M34.0695 187.505L34.1246 187.584C34.3971 187.972 34.7082 188.207 35.0578 188.287C35.4 188.367 35.8178 188.233 36.3112 187.887C36.4728 187.774 36.5756 187.679 36.6197 187.602C36.6594 187.529 36.6836 187.489 36.6923 187.483C36.8577 187.719 36.9337 187.929 36.9203 188.115C36.8994 188.299 36.7755 188.47 36.5484 188.63C36.2384 188.847 35.9032 188.968 35.5427 188.993C35.1779 189.021 34.8006 188.924 34.4106 188.702C34.0176 188.476 33.6405 188.106 33.2792 187.59C33.0771 187.302 32.8858 186.974 32.7055 186.605C32.5576 186.292 32.407 186.026 32.2539 185.808C32.058 185.528 31.8345 185.307 31.5836 185.144C31.8735 184.954 32.1337 184.879 32.364 184.92C32.5942 184.96 32.8028 185.113 32.9896 185.38C33.0876 185.52 33.1746 185.667 33.2508 185.822C33.3269 185.977 33.4292 186.202 33.5574 186.496L38.3964 184.451L39.0578 185.394L34.0695 187.505Z" fill="#357960"/>
<path d="M36.5496 181.407C36.6951 181.65 36.7277 181.87 36.6472 182.067C36.5668 182.265 36.4146 182.431 36.1905 182.565C36.0945 182.623 35.9802 182.676 35.8476 182.725C35.7104 182.776 35.5778 182.824 35.4498 182.87C35.319 182.911 35.2349 182.937 35.1974 182.947C35.0154 183.007 34.837 183.067 34.6624 183.128C34.4877 183.19 34.3523 183.249 34.2563 183.307C34.0231 183.447 33.9559 183.599 34.0548 183.764C34.1207 183.874 34.2314 183.944 34.3869 183.975C34.5396 184.002 34.7148 183.993 34.9124 183.949L37.4886 183.064L38.0817 184.052L32.8208 185.858L32.0741 184.925L34.0179 184.262C33.6292 184.184 33.3428 183.992 33.1589 183.686C33.0188 183.453 32.9716 183.229 33.0173 183.015C33.063 182.801 33.2161 182.616 33.4767 182.459C33.6093 182.38 33.7675 182.306 33.9513 182.24C34.1306 182.176 34.3547 182.103 34.6235 182.023C34.7872 181.974 34.9473 181.925 35.1037 181.874C35.2527 181.822 35.3661 181.773 35.4439 181.726C35.5353 181.671 35.5938 181.608 35.6194 181.537C35.645 181.465 35.6276 181.379 35.5672 181.279C35.5013 181.169 35.4423 181.102 35.3901 181.077C35.6398 180.964 35.8666 180.943 36.0706 181.014C36.2719 181.079 36.4315 181.211 36.5496 181.407Z" fill="#357960"/>
<path d="M30.0393 182.027L29.6695 181.272L30.925 180.398L31.1891 180.937L30.0393 182.027ZM35.8078 180.054C35.9417 180.327 35.9598 180.6 35.8622 180.874C35.7647 181.147 35.5172 181.381 35.1197 181.576C34.7653 181.75 34.3602 181.862 33.9042 181.914C33.4411 181.963 33.0073 181.914 32.603 181.768C32.1915 181.619 31.8907 181.351 31.7005 180.963C31.6043 180.766 31.5662 180.604 31.5863 180.475C31.6064 180.347 31.6715 180.255 31.7816 180.201L31.8319 180.177L31.4125 180.284L30.9054 179.25L33.6012 178.57C33.6824 178.554 33.7637 178.526 33.8452 178.486C34.0511 178.385 34.1059 178.236 34.0096 178.04C33.9439 177.906 33.8253 177.821 33.6538 177.787C33.48 177.747 33.2785 177.748 33.0492 177.789L32.9013 177.487C33.5053 177.411 33.9653 177.459 34.2812 177.63C34.5899 177.8 34.8089 178.016 34.938 178.28C35.0366 178.481 35.0614 178.671 35.0123 178.849C34.956 179.025 34.826 179.178 34.6223 179.308C34.8867 179.35 35.1234 179.427 35.3324 179.538C35.5343 179.647 35.6928 179.819 35.8078 180.054ZM34.8822 179.929C34.8235 179.809 34.7109 179.718 34.5444 179.658C34.3708 179.594 34.1752 179.589 33.9577 179.642L32.1653 180.093C32.1031 180.124 32.0549 180.177 32.0209 180.253C31.9822 180.332 31.9874 180.421 32.0367 180.522C32.1306 180.713 32.3277 180.83 32.6279 180.873C32.9233 180.919 33.2502 180.907 33.6085 180.838C33.962 180.772 34.2585 180.68 34.498 180.562C34.7374 180.445 34.8742 180.336 34.9084 180.236C34.9402 180.132 34.9315 180.029 34.8822 179.929Z" fill="#357960"/>
<path d="M33.4222 174.655C33.5258 174.918 33.5216 175.141 33.4098 175.322C33.2979 175.504 33.1203 175.643 32.8772 175.738C32.773 175.779 32.6515 175.813 32.5127 175.839C32.3689 175.867 32.2301 175.893 32.0963 175.917C31.9605 175.936 31.8733 175.947 31.8347 175.951C31.6453 175.98 31.4595 176.01 31.2771 176.042C31.0947 176.074 30.9514 176.11 30.8472 176.151C30.5941 176.251 30.5027 176.39 30.5731 176.568C30.6239 176.697 30.7334 176.786 30.9015 176.835C31.0646 176.885 31.2596 176.9 31.4865 176.879L34.0753 176.444L34.4974 177.516L30.4649 178.193L30.0428 177.121L30.4621 177.051C30.0865 176.912 29.8332 176.676 29.7022 176.344C29.6026 176.091 29.5929 175.863 29.6732 175.659C29.7535 175.455 29.9351 175.298 30.218 175.186C30.3619 175.13 30.53 175.084 30.7223 175.048C30.9097 175.014 31.1426 174.98 31.4211 174.945C31.5906 174.924 31.7566 174.901 31.9191 174.878C32.0747 174.851 32.1947 174.821 32.2791 174.787C32.3784 174.748 32.4465 174.696 32.4835 174.63C32.5205 174.563 32.5175 174.476 32.4745 174.367C32.4276 174.247 32.3804 174.171 32.3331 174.138C32.5979 174.069 32.8251 174.085 33.0147 174.188C33.2023 174.286 33.3382 174.442 33.4222 174.655Z" fill="#357960"/>
<path d="M32.4041 171.524C32.4882 171.794 32.4679 172.015 32.343 172.188C32.2182 172.361 32.031 172.487 31.7816 172.565C31.6746 172.598 31.551 172.623 31.4107 172.638C31.2653 172.656 31.125 172.672 30.9897 172.686C30.8529 172.695 30.7651 172.7 30.7263 172.701C30.5354 172.716 30.3478 172.732 30.1636 172.751C29.9794 172.769 29.8338 172.795 29.7269 172.828C29.4672 172.909 29.3659 173.041 29.4231 173.225C29.4612 173.347 29.5521 173.441 29.6959 173.508C29.8381 173.57 30.0103 173.603 30.2127 173.607L32.925 173.356L33.2679 174.456L27.7292 174.968L27.224 173.885L29.2696 173.7C28.9102 173.533 28.6773 173.278 28.5709 172.937C28.49 172.678 28.4969 172.449 28.5919 172.252C28.6868 172.055 28.8794 171.911 29.1696 171.82C29.3173 171.774 29.4883 171.741 29.6827 171.719C29.872 171.699 30.1068 171.682 30.3871 171.667C30.5577 171.659 30.7249 171.648 30.8887 171.636C31.0459 171.621 31.1678 171.6 31.2544 171.573C31.3562 171.541 31.428 171.493 31.4697 171.43C31.5114 171.367 31.5148 171.279 31.4799 171.167C31.4418 171.045 31.4003 170.966 31.3555 170.929C31.6247 170.879 31.85 170.912 32.0316 171.029C32.2117 171.14 32.3358 171.305 32.4041 171.524Z" fill="#357960"/>
<path d="M29.3714 169.546L29.0528 167.978L29.6992 167.986L30.0194 169.561L29.3714 169.546Z" fill="#357960"/>
<path d="M25.4118 163.843C25.5893 164.187 25.8349 164.446 26.1484 164.618C26.4615 164.786 26.8281 164.852 27.248 164.819C27.4447 164.803 27.5815 164.773 27.6582 164.729C27.7296 164.686 27.7707 164.664 27.7813 164.663C27.8044 164.95 27.7633 165.17 27.6579 165.323C27.5468 165.471 27.353 165.557 27.0766 165.579C26.7363 165.606 26.3956 165.495 26.0543 165.244C25.7074 164.988 25.418 164.65 25.1861 164.23C24.949 163.811 24.8129 163.383 24.7777 162.947C24.7717 162.873 24.7685 162.766 24.768 162.627L27.1854 162.946L27.091 161.773L24.6735 161.454L24.581 160.306L30.6478 161.093L30.7404 162.242L27.6907 161.845L27.7851 163.018L30.8348 163.414L30.9273 164.562L25.4118 163.843Z" fill="#357960"/>
<path d="M24.6614 157.357L24.6645 157.189L26.1851 156.737L26.1804 156.993L25.5317 157.461L26.1485 158.729L26.142 159.081L24.6614 157.357ZM30.6719 159.452C30.6663 159.756 30.5577 160.007 30.346 160.206C30.1343 160.405 29.8072 160.5 29.3646 160.492C28.97 160.485 28.5581 160.4 28.1291 160.237C27.6947 160.069 27.3311 159.828 27.0382 159.513C26.74 159.193 26.5949 158.817 26.6029 158.385C26.6069 158.166 26.6472 158.004 26.7238 157.899C26.8004 157.794 26.9001 157.742 27.0227 157.745L27.0787 157.746L26.6564 157.65L26.6776 156.498L29.3865 157.124C29.4661 157.147 29.5512 157.159 29.6419 157.161C29.8712 157.165 29.9878 157.058 29.9919 156.839C29.9946 156.69 29.9276 156.56 29.7909 156.451C29.6544 156.337 29.4747 156.245 29.2519 156.177L29.2581 155.841C29.8303 156.049 30.2178 156.302 30.4203 156.599C30.6177 156.89 30.7137 157.183 30.7083 157.476C30.7041 157.7 30.6395 157.88 30.5143 158.017C30.3839 158.148 30.1984 158.224 29.958 158.247C30.1738 158.405 30.3492 158.582 30.4843 158.776C30.6142 158.965 30.6767 159.191 30.6719 159.452ZM29.9056 158.918C29.9081 158.784 29.8492 158.653 29.7289 158.522C29.6033 158.387 29.4317 158.293 29.2139 158.241L27.4133 157.824C27.344 157.822 27.2768 157.848 27.2119 157.9C27.1416 157.952 27.1054 158.034 27.1033 158.146C27.0994 158.359 27.2212 158.554 27.4687 158.729C27.7108 158.904 28.007 159.043 28.3572 159.145C28.702 159.248 29.0077 159.301 29.2744 159.306C29.541 159.311 29.7123 159.277 29.7883 159.204C29.8645 159.125 29.9036 159.03 29.9056 158.918ZM32.4785 159.109C32.4754 159.28 32.4113 159.428 32.2863 159.554C32.1614 159.674 32.011 159.733 31.835 159.729C31.6591 159.726 31.5082 159.662 31.3825 159.537C31.2622 159.407 31.2036 159.256 31.2068 159.086C31.21 158.91 31.2741 158.759 31.3991 158.633C31.5294 158.508 31.6826 158.446 31.8586 158.45C32.0345 158.453 32.1827 158.52 32.303 158.65C32.4232 158.78 32.4818 158.933 32.4785 159.109Z" fill="#357960"/>
<path d="M30.828 155.483C30.8025 155.738 30.7023 155.937 30.5272 156.081C30.3526 156.219 30.1061 156.272 29.7877 156.24C29.655 156.227 29.4846 156.188 29.2766 156.124L26.7754 155.328L26.8898 154.182L29.5391 155.025C29.6012 155.047 29.6668 155.062 29.7357 155.069C29.9693 155.092 30.094 155.024 30.1099 154.865C30.1247 154.716 30.0764 154.583 29.9649 154.465C29.8481 154.346 29.6841 154.244 29.4729 154.158L26.9717 153.362L27.0861 152.216L29.7354 153.059C29.8129 153.088 29.8968 153.107 29.987 153.116C30.0931 153.127 30.1725 153.111 30.225 153.068C30.2728 153.019 30.3025 152.936 30.3141 152.819C30.3226 152.734 30.3234 152.673 30.3165 152.635C30.3048 152.59 30.2968 152.563 30.2926 152.552C30.5611 152.6 30.7562 152.713 30.8777 152.892C30.9993 153.07 31.0481 153.278 31.0243 153.517C31.002 153.74 30.9177 153.914 30.7712 154.039C30.6253 154.158 30.4316 154.219 30.1902 154.222C30.464 154.431 30.644 154.642 30.73 154.855C30.8165 155.062 30.8492 155.271 30.828 155.483Z" fill="#357960"/>
<path d="M33.2877 149.929C33.2017 150.309 33.0334 150.593 32.7828 150.782C32.5385 150.968 32.2577 151.025 31.9404 150.953C31.7428 150.908 31.5713 150.82 31.426 150.689C31.2808 150.557 31.1796 150.4 31.1224 150.218C31.0601 150.034 31.0507 149.846 31.0943 149.654C31.139 149.456 31.2243 149.309 31.3502 149.211C31.4773 149.109 31.6215 149.076 31.7827 149.113C31.9076 149.141 32 149.192 32.0598 149.265C31.9868 149.298 31.9227 149.352 31.8674 149.427C31.8134 149.497 31.7763 149.576 31.7563 149.664C31.721 149.82 31.7442 149.96 31.8258 150.082C31.9075 150.204 32.0315 150.284 32.198 150.322C32.3645 150.36 32.5103 150.343 32.6355 150.273C32.7619 150.198 32.8416 150.088 32.8746 149.942C32.9158 149.76 32.8705 149.586 32.7387 149.419C32.6068 149.253 32.3899 149.1 32.0879 148.96L30.4518 148.18L30.4448 148.211C30.6106 148.396 30.7226 148.602 30.7808 148.828C30.8401 149.05 30.8426 149.28 30.7885 149.519C30.7202 149.821 30.5795 150.068 30.3665 150.26C30.1534 150.453 29.8845 150.578 29.5598 150.635C29.231 150.687 28.8689 150.668 28.4736 150.578C27.9014 150.449 27.4095 150.206 26.9978 149.85C26.581 149.494 26.2867 149.066 26.1151 148.568C25.9435 148.07 25.9172 147.558 26.0361 147.033C26.1362 146.591 26.3113 146.264 26.5614 146.052C26.8128 145.836 27.1049 145.765 27.4378 145.841C27.6615 145.891 27.8286 145.987 27.9391 146.126C28.0496 146.266 28.0849 146.425 28.0448 146.601C28.0225 146.7 27.9805 146.789 27.9188 146.868C27.8584 146.942 27.7827 146.999 27.6917 147.038C27.6505 146.931 27.5693 146.83 27.4482 146.737C27.323 146.638 27.1902 146.572 27.0498 146.54C26.8937 146.505 26.7635 146.525 26.6591 146.6C26.5506 146.668 26.4776 146.785 26.4399 146.952C26.3716 147.254 26.4409 147.575 26.6479 147.918C26.8496 148.258 27.1469 148.564 27.5398 148.833C27.9327 149.102 28.3658 149.291 28.8392 149.398C29.2293 149.486 29.5425 149.491 29.7789 149.414C30.01 149.335 30.152 149.178 30.205 148.944C30.2686 148.663 30.1763 148.383 29.928 148.102C29.681 147.817 29.2887 147.545 28.7511 147.286L28.9673 146.367L31.4601 147.53C32.1975 147.872 32.7135 148.238 33.0081 148.627C33.304 149.011 33.3972 149.445 33.2877 149.929Z" fill="#357960"/>
<path d="M28.3543 144.753C28.3045 144.922 28.2035 145.048 28.0511 145.131C27.8988 145.214 27.7382 145.23 27.5694 145.181C27.4006 145.131 27.2747 145.03 27.1917 144.878C27.1036 144.724 27.0844 144.562 27.1342 144.394C27.184 144.225 27.2876 144.1 27.4451 144.018C27.5989 143.93 27.7602 143.911 27.9291 143.961C28.0979 144.01 28.223 144.114 28.3045 144.271C28.3875 144.424 28.4041 144.584 28.3543 144.753ZM32.4977 146.542C32.4253 146.787 32.2897 146.964 32.091 147.072C31.8938 147.176 31.6418 147.182 31.3348 147.091C31.2069 147.054 31.0467 146.984 30.8541 146.883L28.5447 145.635L28.8705 144.53L31.3166 145.852C31.3873 145.895 31.4661 145.929 31.5531 145.955C31.6554 145.985 31.7364 145.984 31.796 145.951C31.852 145.912 31.8966 145.836 31.9298 145.724C31.9569 145.632 31.9657 145.545 31.9561 145.465C32.2059 145.561 32.3757 145.711 32.4656 145.915C32.5518 146.113 32.5625 146.322 32.4977 146.542Z" fill="#357960"/>
<path d="M33.027 144.853C32.9257 145.139 32.7432 145.343 32.4796 145.465C32.2159 145.587 31.8754 145.574 31.4581 145.426C31.086 145.295 30.722 145.084 30.3663 144.794C30.0073 144.498 29.7385 144.154 29.56 143.763C29.3783 143.365 29.3594 142.962 29.5034 142.555C29.5763 142.349 29.6657 142.208 29.7716 142.132C29.8776 142.056 29.9884 142.039 30.104 142.08L30.1568 142.098L29.7864 141.874L30.1704 140.788L32.5429 142.238C32.6112 142.284 32.6881 142.323 32.7736 142.353C32.8741 142.389 32.955 142.392 33.0163 142.363C33.0743 142.327 33.1229 142.253 33.162 142.143C33.1869 142.072 33.1963 142.013 33.1905 141.966C33.4329 142.176 33.5942 142.352 33.6743 142.493C33.7494 142.633 33.7532 142.798 33.6856 142.99C33.6127 143.196 33.4929 143.343 33.326 143.431C33.1558 143.512 32.9548 143.529 32.7229 143.481C33.0821 143.953 33.1835 144.41 33.027 144.853ZM32.4687 144.104C32.5132 143.978 32.4989 143.834 32.4259 143.673C32.3496 143.504 32.2164 143.361 32.0263 143.243L30.4496 142.278C30.3843 142.255 30.3125 142.258 30.2344 142.287C30.1513 142.314 30.091 142.381 30.0537 142.486C29.9826 142.687 30.0368 142.91 30.2162 143.155C30.3906 143.397 30.6278 143.623 30.9277 143.83C31.2225 144.036 31.4957 144.184 31.7471 144.273C31.9985 144.362 32.1719 144.383 32.2671 144.338C32.3642 144.287 32.4314 144.209 32.4687 144.104Z" fill="#357960"/>
<path d="M34.9172 140.138C34.803 140.396 34.6419 140.549 34.4341 140.598C34.2262 140.646 34.0028 140.617 33.7638 140.511C33.6613 140.466 33.5521 140.403 33.436 140.323C33.3151 140.24 33.199 140.16 33.0879 140.081C32.9789 139.998 32.9094 139.944 32.8796 139.919C32.7261 139.805 32.574 139.694 32.4232 139.586C32.2725 139.479 32.1459 139.403 32.0434 139.357C31.7946 139.247 31.6314 139.28 31.5538 139.456C31.4978 139.583 31.5116 139.723 31.5953 139.876C31.6741 140.028 31.8006 140.177 31.9747 140.324L34.1036 141.86L33.6379 142.913L30.3222 140.521L30.7879 139.467L31.1328 139.716C30.9674 139.351 30.957 139.005 31.1014 138.678C31.2114 138.43 31.367 138.262 31.5683 138.176C31.7695 138.09 32.0092 138.109 32.2872 138.232C32.4287 138.294 32.5797 138.381 32.7402 138.493C32.8959 138.603 33.0841 138.744 33.3048 138.918C33.4388 139.024 33.5714 139.126 33.7026 139.225C33.8312 139.316 33.9369 139.381 34.0198 139.417C34.1174 139.46 34.2027 139.472 34.2758 139.452C34.3488 139.432 34.4091 139.368 34.4565 139.261C34.5083 139.143 34.5292 139.056 34.5193 139C34.7552 139.139 34.9031 139.312 34.9631 139.519C35.0252 139.722 35.01 139.928 34.9172 140.138Z" fill="#357960"/>
<path d="M37.5193 139.313C37.4015 139.534 37.2245 139.691 36.9883 139.783C36.7594 139.872 36.5343 139.858 36.313 139.74C36.1059 139.63 35.9639 139.488 35.8873 139.314C35.8106 139.141 35.7784 138.951 35.7908 138.746C35.8032 138.541 35.841 138.278 35.9041 137.955L35.6413 137.733C35.7746 138.118 35.7561 138.471 35.5857 138.791C35.4428 139.06 35.232 139.234 34.9531 139.315C34.6743 139.397 34.3395 139.333 33.9488 139.125C33.6004 138.94 33.2719 138.677 32.9632 138.338C32.6524 137.991 32.4378 137.611 32.3195 137.198C32.199 136.777 32.2403 136.376 32.4433 135.995C32.546 135.802 32.6554 135.676 32.7715 135.616C32.8875 135.557 32.9996 135.557 33.1079 135.614L33.122 135.622L32.8207 135.371L33.3658 134.347L37.0029 137.389C37.4048 137.723 37.6289 138.057 37.6753 138.39C37.7241 138.718 37.6721 139.026 37.5193 139.313ZM35.145 137.968C35.2027 137.859 35.2156 137.727 35.1838 137.571C35.1498 137.408 35.0606 137.258 34.9162 137.121L33.3989 135.851C33.2141 135.801 33.0803 135.853 32.9976 136.009C32.8974 136.197 32.9178 136.425 33.0589 136.694C33.1952 136.96 33.3962 137.218 33.6618 137.468C33.9227 137.716 34.1709 137.902 34.4063 138.027C34.6417 138.153 34.8098 138.2 34.9108 138.169C35.0143 138.134 35.0924 138.066 35.145 137.968ZM36.8043 139.141C36.8494 139.056 36.8473 138.952 36.7979 138.829C36.7533 138.709 36.6457 138.576 36.4753 138.431L36.1038 138.124C36.0557 138.419 36.0518 138.665 36.0921 138.861C36.1324 139.058 36.242 139.204 36.4209 139.299C36.4774 139.329 36.5442 139.329 36.6214 139.297C36.7032 139.268 36.7642 139.216 36.8043 139.141Z" fill="#357960"/>
</g>
<defs>
<clipPath id="clip0_13_5333">
<rect width="204.448" height="204.448" fill="white" transform="translate(0 197.481) rotate(-75)"/>
</clipPath>
</defs>
</svg>
