<svg width="160" height="160" viewBox="0 0 160 160" fill="none" xmlns="http://www.w3.org/2000/svg">
<path fill-rule="evenodd" clip-rule="evenodd" d="M78.1043 88.2819C78.1035 88.2819 78.1027 88.2827 78.1019 88.2827C70.4593 90.7534 63.2341 94.3529 56.6526 98.9556C54.1468 97.2032 51.5424 95.5922 48.851 94.1318C40.3698 89.5275 31.0311 86.419 21.2163 85.0992L20.546 85.0092C20.3926 83.3602 20.3135 81.6899 20.3135 80.0007C20.3135 77.2932 20.5155 74.6339 20.9047 72.0361C23.8122 71.7069 26.7658 71.5325 29.761 71.5325C47.9897 71.5325 64.7689 77.7858 78.1043 88.2819Z" fill="#357960"/>
<path fill-rule="evenodd" clip-rule="evenodd" d="M78.102 88.2831C70.4594 90.7538 63.2342 94.3532 56.6526 98.956C54.1469 97.2036 51.5424 95.5925 48.8511 94.1322C55.5704 89.4584 63.0729 85.8013 71.1618 83.4009C73.565 84.9046 75.8812 86.5346 78.102 88.2831Z" fill="#2D6651"/>
<path fill-rule="evenodd" clip-rule="evenodd" d="M54.3965 100.594C54.3957 100.594 54.3957 100.595 54.3949 100.595C47.7578 105.586 41.8363 111.632 36.882 118.598C36.882 118.599 36.8812 118.599 36.8812 118.6C28.4407 110.604 22.6234 99.8241 20.8701 87.7153C29.995 88.942 38.6235 91.7482 46.479 95.8489C46.483 95.8513 46.4869 95.8528 46.4908 95.8552C49.2228 97.2824 51.8625 98.865 54.3965 100.594Z" fill="#357960"/>
<path fill-rule="evenodd" clip-rule="evenodd" d="M54.395 100.595C47.7579 105.585 41.8364 111.632 36.882 118.598C34.6331 116.467 32.5698 114.138 30.7202 111.64C35.1961 105.674 40.499 100.347 46.4791 95.8486C49.2151 97.2774 51.8579 98.8632 54.395 100.595Z" fill="#2D6651"/>
<path fill-rule="evenodd" clip-rule="evenodd" d="M124.465 90.0122L124.217 91.1741C124.059 91.9153 123.887 92.6494 123.699 93.3772C123.656 93.543 123.613 93.7088 123.568 93.8745C123.524 94.0403 123.478 94.2045 123.432 94.3694C123.424 94.4002 123.416 94.4318 123.406 94.4626C123.359 94.6315 123.311 94.7996 123.262 94.9678C123.214 95.1359 123.163 95.304 123.113 95.4714C123.109 95.4856 123.105 95.5006 123.1 95.5148C123.059 95.6498 123.018 95.7848 122.976 95.919C122.96 95.9718 122.943 96.0247 122.927 96.0768C122.876 96.2371 122.825 96.3965 122.773 96.556C122.716 96.7312 122.658 96.9064 122.599 97.0809C122.542 97.2506 122.484 97.4203 122.425 97.5892C122.423 97.5979 122.42 97.6066 122.416 97.6153C122.359 97.7771 122.302 97.9381 122.244 98.0992C122.241 98.111 122.237 98.1221 122.232 98.1339C122.171 98.302 122.109 98.4702 122.047 98.6375C121.919 98.9809 121.788 99.3227 121.654 99.6621L120.496 99.6724C116.109 99.7118 111.773 100.104 107.523 100.834C88.302 104.131 70.8227 114.31 58.2868 129.771L57.55 130.679C50.5934 128.546 44.2491 124.998 38.8452 120.368C53.0983 100.179 76.5014 87.0103 102.955 87.0103C105.908 87.0103 108.823 87.1744 111.692 87.4949C116.067 87.982 120.335 88.8313 124.465 90.0122Z" fill="#3FC493"/>
<path fill-rule="evenodd" clip-rule="evenodd" d="M60.3135 131.441C74.5948 113.828 96.243 102.527 120.518 102.312C112.066 120.667 93.6245 132.963 72.8525 132.963C68.5308 132.963 64.3321 132.433 60.3135 131.441Z" fill="#3FC493"/>
<path fill-rule="evenodd" clip-rule="evenodd" d="M106.204 103.754C110.842 102.849 115.627 102.355 120.519 102.312C112.066 120.667 93.6246 132.963 72.8526 132.963C72.7476 132.963 72.6435 132.962 72.5386 132.962C87.1715 128.007 99.2391 117.419 106.204 103.754Z" fill="#319973"/>
<path fill-rule="evenodd" clip-rule="evenodd" d="M124.464 90.0124L124.217 91.1743C123.6 94.0673 122.748 96.9169 121.653 99.6623L120.495 99.6726C116.108 99.712 111.772 100.104 107.522 100.835C109.406 96.6162 110.819 92.1452 111.691 87.4951C116.067 87.9822 120.334 88.8315 124.464 90.0124Z" fill="#319973"/>
<path fill-rule="evenodd" clip-rule="evenodd" d="M98.1631 84.5121C96.6761 84.5997 95.1969 84.7284 93.7264 84.8965C89.4525 85.3867 85.2537 86.2131 81.1623 87.3593C73.2699 80.8668 64.1912 75.8844 54.3882 72.7411C58.6605 66.2218 65.9954 61.9214 74.3262 61.9214C75.9707 61.9214 77.5759 62.0887 79.1263 62.4084L79.1271 62.4092C89.5495 64.5523 97.5022 73.54 98.1631 84.5121Z" fill="#F4BD1A"/>
<path fill-rule="evenodd" clip-rule="evenodd" d="M98.1629 84.512C96.6759 84.5997 95.1968 84.7283 93.7262 84.8965C93.1491 69.9965 79.3454 62.526 79.127 62.4092C89.5494 64.5523 97.502 73.5399 98.1629 84.512Z" fill="#DBAA17"/>
</svg>
