<svg width="160" height="160" viewBox="0 0 160 160" fill="none" xmlns="http://www.w3.org/2000/svg">
<path fill-rule="evenodd" clip-rule="evenodd" d="M81.8957 88.2819C81.8965 88.2819 81.8973 88.2827 81.8981 88.2827C89.5407 90.7534 96.7659 94.3529 103.347 98.9556C105.853 97.2032 108.458 95.5922 111.149 94.1318C119.63 89.5275 128.969 86.419 138.784 85.0992L139.454 85.0092C139.607 83.3602 139.687 81.6899 139.687 80.0007C139.687 77.2932 139.484 74.6339 139.095 72.0361C136.188 71.7069 133.234 71.5325 130.239 71.5325C112.01 71.5325 95.2311 77.7858 81.8957 88.2819Z" fill="#357960"/>
<path fill-rule="evenodd" clip-rule="evenodd" d="M81.898 88.2831C89.5406 90.7538 96.7658 94.3532 103.347 98.956C105.853 97.2036 108.458 95.5925 111.149 94.1322C104.43 89.4584 96.9271 85.8013 88.8382 83.4009C86.435 84.9046 84.1188 86.5346 81.898 88.2831Z" fill="#2D6651"/>
<path fill-rule="evenodd" clip-rule="evenodd" d="M105.604 100.594C105.604 100.594 105.604 100.595 105.605 100.595C112.242 105.586 118.164 111.632 123.118 118.598C123.118 118.599 123.119 118.599 123.119 118.6C131.559 110.604 137.377 99.8241 139.13 87.7153C130.005 88.942 121.377 91.7482 113.521 95.8489C113.517 95.8513 113.513 95.8528 113.509 95.8552C110.777 97.2824 108.137 98.865 105.604 100.594Z" fill="#357960"/>
<path fill-rule="evenodd" clip-rule="evenodd" d="M105.605 100.595C112.242 105.585 118.164 111.632 123.118 118.598C125.367 116.467 127.43 114.138 129.28 111.64C124.804 105.674 119.501 100.347 113.521 95.8486C110.785 97.2774 108.142 98.8632 105.605 100.595Z" fill="#2D6651"/>
<path fill-rule="evenodd" clip-rule="evenodd" d="M35.5351 90.0122L35.7826 91.1741C35.9407 91.9153 36.113 92.6494 36.3009 93.3772C36.344 93.543 36.3871 93.7088 36.4317 93.8745C36.4763 94.0403 36.5218 94.2045 36.568 94.3694C36.5758 94.4002 36.5844 94.4318 36.5938 94.4626C36.6408 94.6315 36.6886 94.7996 36.7379 94.9678C36.7864 95.1359 36.8365 95.304 36.8867 95.4714C36.8906 95.4856 36.8953 95.5006 36.9 95.5148C36.9407 95.6498 36.9822 95.7848 37.0245 95.919C37.0401 95.9718 37.0566 96.0247 37.073 96.0768C37.1239 96.2371 37.1748 96.3965 37.2273 96.556C37.2845 96.7312 37.3416 96.9064 37.4011 97.0809C37.4583 97.2506 37.5162 97.4203 37.575 97.5892C37.5773 97.5979 37.5805 97.6066 37.5844 97.6153C37.6407 97.7771 37.6979 97.9381 37.7559 98.0992C37.759 98.111 37.7629 98.1221 37.7684 98.1339C37.8287 98.302 37.8905 98.4702 37.9532 98.6375C38.0808 98.9809 38.2116 99.3227 38.3463 99.6621L39.5044 99.6724C43.8911 99.7118 48.2268 100.104 52.4772 100.834C71.698 104.131 89.1773 114.31 101.713 129.771L102.45 130.679C109.407 128.546 115.751 124.998 121.155 120.368C106.902 100.179 83.4986 87.0103 57.0448 87.0103C54.0919 87.0103 51.1766 87.1744 48.3083 87.4949C43.9326 87.982 39.6649 88.8313 35.5351 90.0122Z" fill="#3FC493"/>
<path fill-rule="evenodd" clip-rule="evenodd" d="M99.6865 131.441C85.4052 113.828 63.757 102.527 39.4816 102.312C47.9339 120.667 66.3755 132.963 87.1475 132.963C91.4692 132.963 95.6679 132.433 99.6865 131.441Z" fill="#3FC493"/>
<path fill-rule="evenodd" clip-rule="evenodd" d="M53.7965 103.754C49.1577 102.849 44.3732 102.355 39.4815 102.312C47.9338 120.667 66.3754 132.963 87.1474 132.963C87.2524 132.963 87.3565 132.962 87.4614 132.962C72.8285 128.007 60.7609 117.419 53.7965 103.754Z" fill="#319973"/>
<path fill-rule="evenodd" clip-rule="evenodd" d="M35.5359 90.0124L35.7834 91.1743C36.4004 94.0673 37.2516 96.9169 38.3471 99.6623L39.5052 99.6726C43.8919 99.712 48.2276 100.104 52.478 100.835C50.594 96.6162 49.1814 92.1452 48.3091 87.4951C43.9334 87.9822 39.6657 88.8315 35.5359 90.0124Z" fill="#319973"/>
<path fill-rule="evenodd" clip-rule="evenodd" d="M61.8369 84.5121C63.3239 84.5997 64.8031 84.7284 66.2736 84.8965C70.5475 85.3867 74.7463 86.2131 78.8377 87.3593C86.7301 80.8668 95.8088 75.8844 105.612 72.7411C101.339 66.2218 94.0046 61.9214 85.6738 61.9214C84.0293 61.9214 82.4241 62.0887 80.8737 62.4084L80.8729 62.4092C70.4505 64.5523 62.4978 73.54 61.8369 84.5121Z" fill="#F4BD1A"/>
<path fill-rule="evenodd" clip-rule="evenodd" d="M61.8371 84.512C63.3241 84.5997 64.8032 84.7283 66.2738 84.8965C66.8509 69.9965 80.6546 62.526 80.873 62.4092C70.4506 64.5523 62.498 73.5399 61.8371 84.512Z" fill="#DBAA17"/>
</svg>
