<svg width="121" height="120" viewBox="0 0 121 120" fill="none" xmlns="http://www.w3.org/2000/svg">
<g clip-path="url(#clip0_881_9537)">
<path fill-rule="evenodd" clip-rule="evenodd" d="M58.7944 67.4536C58.7937 67.4536 58.793 67.4543 58.7923 67.4543C51.914 69.678 45.4113 72.9175 39.4879 77.06C37.2327 75.4828 34.8887 74.0329 32.4665 72.7186C24.8334 68.5747 16.4286 65.777 7.59529 64.5892L6.99203 64.5082C6.8539 63.0241 6.78271 61.5209 6.78271 60.0006C6.78271 57.5638 6.96454 55.1704 7.3148 52.8324C9.93153 52.5362 12.5898 52.3792 15.2855 52.3792C31.6913 52.3792 46.7926 58.0071 58.7944 67.4536Z" fill="#357960"/>
<path fill-rule="evenodd" clip-rule="evenodd" d="M54.0678 6C55.5865 6 57.0904 6.06465 58.5775 6.18968V6.18826C58.6381 6.19323 58.698 6.19892 58.7586 6.20389L58.7691 6.2046C61.7728 6.45041 64.7997 6.98181 67.7955 7.78956C67.8484 7.80377 67.902 7.81868 67.9548 7.83289C68.1106 7.87552 68.267 7.91743 68.4228 7.96148C72.862 9.20401 77.0686 11.0071 80.9644 13.2918C90.0528 18.5759 97.9023 26.6271 102.57 37.0427C99.8664 22.9699 93.1086 16.4702 83.104 6.90153C120.974 15.5936 107.075 52.4638 120.5 70.7054C98.6874 69.3314 77.3575 58.555 77.1052 27.5791C77.0312 18.5226 71.4715 12.2972 61.7573 10.5559C59.2512 10.1624 56.6838 9.95848 54.0685 9.95848C26.6524 9.95848 4.42685 32.3631 4.42685 60C4.42685 87.6369 26.6524 110.042 54.0685 110.042C76.8015 110.042 95.9621 94.6367 101.846 73.6181C102.866 69.9765 106.449 71.7057 105.707 74.4131C99.4506 97.239 78.7022 114 54.0685 114C24.4832 114 0.5 89.8236 0.5 60C0.498591 30.1771 24.4825 6 54.0678 6Z" fill="#357960"/>
<path fill-rule="evenodd" clip-rule="evenodd" d="M58.7926 67.4546C51.9143 69.6782 45.4116 72.9177 39.4882 77.0602C37.233 75.4831 34.889 74.0331 32.4668 72.7188C38.5142 68.5124 45.2664 65.221 52.5464 63.0606C54.7093 64.414 56.7939 65.881 58.7926 67.4546Z" fill="#2D6651"/>
<path fill-rule="evenodd" clip-rule="evenodd" d="M37.4569 78.5343C37.4562 78.5343 37.4562 78.5351 37.4555 78.5358C31.4821 83.0271 26.1528 88.4689 21.6939 94.7384C21.6939 94.7391 21.6932 94.7391 21.6932 94.7398C14.0967 87.5432 8.86113 77.8417 7.2832 66.9438C15.4956 68.0478 23.2612 70.5733 30.3312 74.264C30.3348 74.2661 30.3383 74.2675 30.3418 74.2697C32.8007 75.5541 35.1764 76.9785 37.4569 78.5343Z" fill="#357960"/>
<path fill-rule="evenodd" clip-rule="evenodd" d="M37.4557 78.5357C31.4823 83.027 26.153 88.4688 21.6941 94.7383C19.6701 92.8209 17.813 90.7244 16.1484 88.4759C20.1768 83.1066 24.9493 78.3126 30.3315 74.2639C32.7938 75.5498 35.1724 76.977 37.4557 78.5357Z" fill="#2D6651"/>
<path fill-rule="evenodd" clip-rule="evenodd" d="M100.519 69.0109L100.296 70.0567C100.154 70.7238 99.9985 71.3845 99.8294 72.0395C99.7906 72.1887 99.7519 72.3379 99.7117 72.487C99.6715 72.6362 99.6306 72.784 99.5891 72.9325C99.582 72.9602 99.5743 72.9886 99.5658 73.0163C99.5235 73.1683 99.4805 73.3197 99.4361 73.471C99.3924 73.6223 99.3474 73.7736 99.3022 73.9242C99.2987 73.937 99.2945 73.9505 99.2903 73.9633C99.2536 74.0848 99.2163 74.2063 99.1782 74.327C99.1641 74.3746 99.1493 74.4222 99.1345 74.4691C99.0887 74.6133 99.0429 74.7568 98.9957 74.9003C98.9442 75.0581 98.8928 75.2158 98.8392 75.3728C98.7878 75.5255 98.7356 75.6783 98.6828 75.8303C98.6807 75.8381 98.6778 75.8459 98.6743 75.8537C98.6236 75.9994 98.5721 76.1443 98.52 76.2892C98.5172 76.2999 98.5136 76.3098 98.5087 76.3205C98.4544 76.4718 98.3988 76.6231 98.3424 76.7737C98.2275 77.0828 98.1098 77.3904 97.9886 77.6959L96.9463 77.7051C92.9983 77.7406 89.0961 78.0937 85.2707 78.7508C67.972 81.7183 52.2407 90.8792 40.9584 104.794L40.2952 105.611C34.0343 103.692 28.3244 100.498 23.4609 96.331C36.2887 78.1612 57.3515 66.3092 81.16 66.3092C83.8176 66.3092 86.4413 66.457 89.0228 66.7454C92.9609 67.1837 96.8018 67.9482 100.519 69.0109Z" fill="#3FC493"/>
<path fill-rule="evenodd" clip-rule="evenodd" d="M42.7822 106.297C55.6354 90.445 75.1188 80.2746 96.9667 80.0806C89.3596 96.6001 72.7621 107.666 54.0673 107.666C50.1778 107.666 46.399 107.19 42.7822 106.297Z" fill="#3FC493"/>
<path fill-rule="evenodd" clip-rule="evenodd" d="M84.0836 81.3786C88.2585 80.5644 92.5645 80.1197 96.9671 80.0806C89.3601 96.6001 72.7626 107.666 54.0678 107.666C53.9733 107.666 53.8796 107.666 53.7852 107.666C66.9548 103.206 77.8156 93.6774 84.0836 81.3786Z" fill="#319973"/>
<path fill-rule="evenodd" clip-rule="evenodd" d="M100.518 69.0111L100.296 70.0568C99.7404 72.6605 98.9743 75.2252 97.9884 77.696L96.946 77.7052C92.998 77.7408 89.0959 78.0938 85.2705 78.751C86.9661 74.9545 88.2375 70.9306 89.0226 66.7455C92.9607 67.1839 96.8016 67.9483 100.518 69.0111Z" fill="#319973"/>
<path fill-rule="evenodd" clip-rule="evenodd" d="M76.8467 64.0608C75.5083 64.1397 74.1771 64.2555 72.8536 64.4068C69.0071 64.8479 65.2282 65.5918 61.5459 66.6233C54.4428 60.7801 46.2719 56.2959 37.4492 53.467C41.2943 47.5996 47.8957 43.7292 55.3935 43.7292C56.8734 43.7292 58.3182 43.8798 59.7136 44.1675L59.7143 44.1682C69.0944 46.097 76.2519 54.1859 76.8467 64.0608Z" fill="#F4BD1A"/>
<path fill-rule="evenodd" clip-rule="evenodd" d="M76.8463 64.0608C75.5079 64.1396 74.1767 64.2554 72.8532 64.4068C72.3338 50.9968 59.9105 44.2734 59.7139 44.1682C69.094 46.097 76.2514 54.1859 76.8463 64.0608Z" fill="#DBAA17"/>
<path d="M14.9845 47.6629C14.7796 48.2296 14.4861 48.5942 14.1041 48.7566C13.7221 48.9191 13.2 48.8806 12.538 48.6412C12.0114 48.4508 11.4764 48.1581 10.933 47.7631C10.3914 47.3631 9.97564 46.8895 9.68577 46.3423C9.39269 45.7883 9.35588 45.2079 9.57532 44.601C9.71134 44.2248 9.90382 43.9513 10.1528 43.7805C10.4017 43.6096 10.6967 43.5858 11.0377 43.7092C11.2534 43.7871 11.4085 43.8914 11.5031 44.022C11.5926 44.1508 11.6047 44.3055 11.5395 44.4861C11.4742 44.6666 11.3573 44.786 11.1888 44.8442C11.1763 44.7376 11.115 44.6247 11.005 44.5055C10.895 44.3863 10.7672 44.3004 10.6218 44.2478C10.4864 44.1988 10.3624 44.1966 10.25 44.241C10.1393 44.2803 10.055 44.3803 9.99693 44.5408C9.9008 44.8066 9.99228 45.1261 10.2714 45.4992C10.5454 45.8705 10.9311 46.2312 11.4284 46.5811C11.9275 46.9261 12.4329 47.1911 12.9444 47.376C13.3256 47.5139 13.6401 47.5539 13.8879 47.496C14.1357 47.4381 14.3212 47.2387 14.4445 46.8976C14.5515 46.6017 14.5852 46.3048 14.5454 46.0069C14.5057 45.7089 14.3981 45.4262 14.2227 45.1586L14.3605 45.0127C14.6311 45.2524 14.8273 45.5332 14.9491 45.8551C15.0709 46.177 15.1312 46.4966 15.1299 46.8137C15.1236 47.129 15.0752 47.4121 14.9845 47.6629Z" fill="#357960"/>
<path d="M16.5036 43.7989C16.3883 44.057 16.2266 44.2097 16.0186 44.2569C15.8105 44.3042 15.5872 44.2745 15.3486 44.1679C15.2463 44.1222 15.1374 44.0589 15.0216 43.978C14.901 43.8949 14.7853 43.814 14.6744 43.7353C14.5658 43.6517 14.4966 43.5974 14.4668 43.5724C14.3138 43.4573 14.1621 43.3457 14.0118 43.2377C13.8614 43.1296 13.7352 43.0527 13.6329 43.007C13.3846 42.8961 13.2212 42.9283 13.1429 43.1036C13.0907 43.2204 13.0964 43.3515 13.16 43.4967C13.2258 43.6371 13.3333 43.7757 13.4825 43.9124L15.6831 45.5177L15.2131 46.5695L10.7195 43.2914L11.0564 42.1451L12.7135 43.3586C12.5545 42.9955 12.5478 42.6508 12.6936 42.3245C12.8046 42.0762 12.9608 41.9094 13.1625 41.8243C13.3641 41.7391 13.6037 41.7585 13.8812 41.8825C14.0224 41.9456 14.1731 42.0334 14.3331 42.1458C14.4883 42.256 14.676 42.3982 14.896 42.5725C15.0296 42.6789 15.1618 42.7818 15.2926 42.8811C15.4208 42.9734 15.5263 43.0381 15.609 43.0751C15.7064 43.1186 15.7917 43.1304 15.8648 43.1105C15.938 43.0906 15.9985 43.0271 16.0463 42.92C16.0986 42.8031 16.1198 42.7162 16.1102 42.6594C16.3455 42.7995 16.4927 42.9734 16.5519 43.1809C16.6132 43.3835 16.5971 43.5895 16.5036 43.7989Z" fill="#357960"/>
<path d="M12.7717 37.8861L12.8523 37.7388L14.4091 38.0435L14.2862 38.2681L13.4944 38.3819L13.4529 39.791L13.2839 40.0998L12.7717 37.8861ZM17.1248 42.5299C16.9789 42.7966 16.766 42.9689 16.4863 43.0468C16.2065 43.1248 15.8725 43.0575 15.4842 42.845C15.1379 42.6555 14.8125 42.3893 14.5077 42.0462C14.2009 41.6959 13.9907 41.3134 13.8772 40.8987C13.7616 40.4767 13.8075 40.0762 14.0148 39.6973C14.1198 39.5054 14.2307 39.3807 14.3474 39.3229C14.4641 39.2652 14.5762 39.2658 14.6838 39.3247L14.733 39.3515L14.4032 39.0708L14.9563 38.0602L17.0659 39.8712C17.1258 39.9284 17.1955 39.9787 17.2751 40.0222C17.4763 40.1323 17.6293 40.0914 17.7343 39.8996C17.806 39.7686 17.8066 39.623 17.7362 39.4629C17.6683 39.2981 17.5515 39.1338 17.3857 38.9702L17.547 38.6754C17.9575 39.125 18.1836 39.5284 18.2253 39.8856C18.2648 40.2355 18.2142 40.5392 18.0734 40.7965C17.9659 40.993 17.825 41.1226 17.6508 41.1854C17.4745 41.2409 17.2747 41.2227 17.0514 41.1309C17.169 41.3716 17.2425 41.6094 17.272 41.8444C17.2993 42.0722 17.2503 42.3007 17.1248 42.5299ZM16.6937 41.7012C16.7577 41.5843 16.7666 41.4402 16.7205 41.269C16.6722 41.0906 16.5636 40.9279 16.3949 40.7808L14.9931 39.576C14.9323 39.5427 14.861 39.5341 14.7793 39.5502C14.6929 39.5637 14.6228 39.6196 14.569 39.7178C14.4666 39.905 14.4844 40.1335 14.6223 40.4036C14.7556 40.6711 14.9536 40.9314 15.2163 41.1846C15.4744 41.4352 15.7203 41.6246 15.9543 41.7526C16.1882 41.8806 16.3558 41.9298 16.4572 41.9001C16.5611 41.8658 16.6399 41.7995 16.6937 41.7012Z" fill="#357960"/>
<path d="M19.1154 39.0574C18.9741 39.2709 18.7926 39.4002 18.5709 39.4454C18.3521 39.4861 18.1093 39.4182 17.8424 39.2416C17.7312 39.1681 17.5984 39.0546 17.444 38.9014L15.6025 37.0308L16.2381 36.07L18.1888 38.0511C18.2333 38.0998 18.2845 38.1432 18.3423 38.1815C18.538 38.311 18.68 38.309 18.7683 38.1755C18.8507 38.051 18.8702 37.9104 18.8267 37.7538C18.7788 37.5942 18.6814 37.4274 18.5343 37.2533L16.6927 35.3828L17.3283 34.422L19.279 36.4031C19.334 36.465 19.3993 36.521 19.4749 36.571C19.5638 36.6299 19.6416 36.6526 19.7081 36.639C19.7731 36.6181 19.838 36.5587 19.9027 36.4608C19.9498 36.3896 19.9792 36.3355 19.9909 36.2985C20.0011 36.2541 20.0069 36.226 20.0083 36.2141C20.2234 36.382 20.3432 36.5731 20.3676 36.7875C20.392 37.0019 20.338 37.2092 20.2056 37.4094C20.082 37.5962 19.9264 37.7107 19.7387 37.7527C19.5539 37.7904 19.3541 37.7541 19.1392 37.6439C19.2838 37.957 19.3447 38.2275 19.3218 38.4554C19.3019 38.6788 19.2331 38.8795 19.1154 39.0574Z" fill="#357960"/>
<path d="M18.9538 30.3266L18.8921 30.4002C18.5873 30.764 18.4412 31.1252 18.4539 31.4837C18.4659 31.8347 18.7029 32.2038 19.1649 32.5908C19.3161 32.7176 19.4344 32.7923 19.5197 32.8151C19.6009 32.8344 19.6456 32.8475 19.6538 32.8544C19.4688 33.0751 19.2851 33.203 19.1027 33.238C18.9196 33.2655 18.7218 33.1902 18.5092 33.0121C18.219 32.7689 18.0152 32.4764 17.898 32.1347C17.7767 31.7895 17.7726 31.3999 17.8858 30.9659C18.0024 30.5278 18.2628 30.0676 18.6669 29.5852C18.893 29.3154 19.1607 29.0457 19.4701 28.7761C19.7343 28.5522 19.952 28.338 20.1233 28.1336C20.3425 27.872 20.4983 27.5989 20.5905 27.3144C20.8494 27.5452 20.9891 27.7771 21.0097 28.01C21.0302 28.2429 20.936 28.4841 20.727 28.7334C20.6174 28.8642 20.4976 28.9865 20.3676 29.1002C20.2375 29.2139 20.0469 29.3708 19.7958 29.5709L23.0234 33.7157L22.2836 34.5987L18.9538 30.3266Z" fill="#357960"/>
<path d="M25.4861 31.144C25.2897 31.3473 25.0856 31.4357 24.874 31.4092C24.6623 31.3826 24.4625 31.2786 24.2745 31.097C24.194 31.0191 24.1131 30.9225 24.0319 30.8069C23.9469 30.6877 23.8657 30.5722 23.7883 30.4603C23.7147 30.3447 23.6682 30.27 23.6487 30.2364C23.5441 30.076 23.4396 29.9194 23.3351 29.7666C23.2307 29.6137 23.1382 29.4984 23.0576 29.4206C22.862 29.2316 22.6975 29.2061 22.5641 29.3442C22.4751 29.4362 22.4358 29.5614 22.4461 29.7196C22.46 29.874 22.5138 30.0409 22.6074 30.2204L24.1286 32.4799L23.3281 33.3084L20.2219 28.6942L20.9296 27.7315L22.0735 29.4375C22.0478 29.0419 22.1591 28.7156 22.4074 28.4586C22.5964 28.263 22.8002 28.1596 23.0188 28.1483C23.2373 28.137 23.4559 28.2369 23.6746 28.4482C23.7858 28.5556 23.8975 28.6895 24.0096 28.8498C24.1179 29.0063 24.2458 29.204 24.3932 29.4429C24.4825 29.5884 24.5716 29.7302 24.6608 29.8683C24.7498 29.9987 24.8269 30.0955 24.8921 30.1585C24.9688 30.2326 25.0449 30.2728 25.1204 30.279C25.196 30.2853 25.2745 30.2462 25.3561 30.1618C25.445 30.0698 25.4946 29.9954 25.505 29.9386C25.6784 30.1506 25.7575 30.3643 25.7423 30.5795C25.7308 30.7909 25.6454 30.9791 25.4861 31.144Z" fill="#357960"/>
<path d="M23.2027 25.0158L23.8355 24.4634L25.0046 25.4499L24.5526 25.8445L23.2027 25.0158ZM26.6012 30.0772C26.3722 30.2771 26.113 30.3654 25.8235 30.3419C25.534 30.3185 25.2438 30.14 24.9527 29.8065C24.6931 29.5092 24.4796 29.147 24.312 28.7198C24.145 28.2851 24.0798 27.8536 24.1164 27.4251C24.1536 26.9892 24.3349 26.6292 24.6603 26.3451C24.8251 26.2013 24.9722 26.1225 25.1016 26.1086C25.2311 26.0947 25.3362 26.1339 25.4168 26.2263L25.4537 26.2685L25.2411 25.8912L26.109 25.1337L27.4637 27.5616C27.5003 27.6359 27.5483 27.7072 27.608 27.7755C27.7588 27.9483 27.9165 27.9628 28.0813 27.819C28.1938 27.7208 28.2446 27.5844 28.2338 27.4098C28.227 27.2317 28.174 27.0372 28.075 26.8264L28.3281 26.6054C28.5582 27.1691 28.6311 27.6258 28.5469 27.9754C28.4632 28.3174 28.3109 28.5849 28.0899 28.7778C27.9212 28.9251 27.7442 28.9981 27.5591 28.9969C27.3745 28.9882 27.1932 28.9022 27.0153 28.7389C27.0425 29.0053 27.0295 29.2539 26.976 29.4846C26.923 29.7078 26.7981 29.9054 26.6012 30.0772ZM26.4827 29.1506C26.5832 29.063 26.6413 28.9308 26.657 28.7542C26.6733 28.5701 26.6276 28.3799 26.52 28.1836L25.6204 26.569C25.5748 26.5168 25.5108 26.4841 25.4286 26.4709C25.3428 26.4538 25.2577 26.482 25.1733 26.5557C25.0126 26.696 24.9504 26.9166 24.9867 27.2177C25.0194 27.5148 25.1154 27.8275 25.2745 28.1558C25.4302 28.4801 25.5957 28.7427 25.771 28.9436C25.9464 29.1445 26.0867 29.2485 26.1921 29.2557C26.3015 29.2593 26.3983 29.2243 26.4827 29.1506Z" fill="#357960"/>
<path d="M31.1986 26.3756C30.9714 26.5437 30.7556 26.5973 30.5512 26.5362C30.3468 26.4751 30.1669 26.3396 30.0114 26.1295C29.9448 26.0394 29.881 25.9307 29.8199 25.8034C29.7557 25.6718 29.6947 25.5445 29.6368 25.4214C29.5833 25.2952 29.5497 25.2139 29.536 25.1775C29.4593 25.0021 29.382 24.8304 29.3042 24.6624C29.2263 24.4944 29.1541 24.3654 29.0875 24.2754C28.9257 24.0567 28.7677 24.0045 28.6133 24.1187C28.5018 24.2012 28.4445 24.3299 28.4412 24.5048C28.4347 24.6754 28.4708 24.8677 28.5494 25.0815L29.6395 27.4695L28.7134 28.1546L27.016 24.4347L27.9421 23.7495L28.1188 24.1363C28.1555 23.7376 28.3175 23.432 28.6048 23.2194C28.8234 23.0577 29.0415 22.9892 29.2589 23.0141C29.4764 23.039 29.6755 23.1736 29.8563 23.418C29.9483 23.5423 30.0364 23.6928 30.1206 23.8693C30.2016 24.0416 30.2951 24.2577 30.4011 24.5176C30.4652 24.6759 30.5298 24.8304 30.5949 24.9813C30.6612 25.1246 30.7213 25.2327 30.7752 25.3056C30.8387 25.3914 30.9071 25.4436 30.9806 25.4622C31.0541 25.4808 31.138 25.4552 31.2323 25.3854C31.3352 25.3093 31.3964 25.2441 31.416 25.1898C31.552 25.4275 31.5948 25.6513 31.5444 25.8611C31.4983 26.0677 31.383 26.2392 31.1986 26.3756Z" fill="#357960"/>
<path d="M33.9595 24.5817C33.7206 24.7328 33.5015 24.7705 33.3021 24.6947C33.1027 24.6189 32.9331 24.4706 32.7934 24.2497C32.7335 24.1551 32.6778 24.042 32.6262 23.9106C32.5717 23.7746 32.5201 23.6432 32.4714 23.5163C32.4271 23.3865 32.3996 23.303 32.3886 23.2657C32.3249 23.0851 32.2603 22.9083 32.1949 22.7351C32.1295 22.5618 32.0669 22.4279 32.007 22.3333C31.8616 22.1034 31.7078 22.0398 31.5455 22.1424C31.4373 22.2109 31.3695 22.3232 31.3421 22.4794C31.3192 22.6327 31.332 22.8076 31.3806 23.0041L32.3248 25.5591L31.3512 26.1749L29.4233 20.9575L30.3383 20.1893L31.0467 22.1172C31.1153 21.7267 31.3005 21.436 31.6025 21.2449C31.8324 21.0995 32.0548 21.0471 32.2699 21.0878C32.4849 21.1285 32.6737 21.2773 32.8362 21.5342C32.9189 21.6649 32.9958 21.8213 33.0669 22.0036C33.1352 22.1813 33.2127 22.4036 33.2995 22.6705C33.3519 22.8331 33.405 22.9919 33.459 23.1471C33.5146 23.2949 33.5667 23.4071 33.6152 23.4837C33.6722 23.5739 33.7367 23.6309 33.8086 23.6548C33.8805 23.6787 33.9661 23.6593 34.0652 23.5966C34.1734 23.5282 34.2392 23.4676 34.2627 23.4149C34.381 23.6619 34.4074 23.8882 34.3419 24.0937C34.2808 24.2965 34.1533 24.4591 33.9595 24.5817Z" fill="#357960"/>
<path d="M35.0851 21.1405L36.5172 20.4269L36.6773 21.0532L35.2381 21.7704L35.0851 21.1405Z" fill="#357960"/>
<path d="M39.5689 15.8396C39.2824 16.1002 39.0963 16.4043 39.0107 16.7518C38.93 17.0976 38.9604 17.469 39.1018 17.8659C39.168 18.0517 39.2321 18.1761 39.2941 18.2389C39.3544 18.2968 39.3863 18.3307 39.3898 18.3407C39.1185 18.4374 38.8954 18.4546 38.7204 18.3924C38.5486 18.3234 38.4161 18.1582 38.3231 17.897C38.2085 17.5754 38.2282 17.2174 38.3821 16.8229C38.5392 16.4216 38.7906 16.0546 39.1364 15.7219C39.4803 15.3843 39.8583 15.1421 40.2703 14.9953C40.3406 14.9702 40.4429 14.9395 40.5771 14.903L40.8948 17.3206L42.0026 16.9259L41.6849 14.5084L42.7701 14.1218L43.5799 20.1857L42.4947 20.5722L42.0882 17.5239L40.9804 17.9185L41.3869 20.9669L40.3017 21.3534L39.5689 15.8396Z" fill="#357960"/>
<path d="M45.6399 13.4361L45.803 13.3956L46.6332 14.7474L46.3848 14.8091L45.7647 14.3036L44.7 15.2275L44.3583 15.3123L45.6399 13.4361ZM45.1721 19.784C44.877 19.8573 44.6061 19.8174 44.3593 19.6644C44.1125 19.5114 43.9357 19.2201 43.829 18.7904C43.7339 18.4074 43.7093 17.9876 43.7553 17.5311C43.8052 17.0681 43.9443 16.6544 44.1725 16.2899C44.4046 15.9191 44.7303 15.6816 45.1496 15.5774C45.3618 15.5247 45.5287 15.5218 45.6502 15.5685C45.7717 15.6153 45.8472 15.6982 45.8768 15.8172L45.8903 15.8716L45.8735 15.4389L46.9915 15.1612L47.0881 17.9399C47.0867 18.0227 47.0969 18.108 47.1187 18.196C47.174 18.4186 47.3078 18.5035 47.52 18.4508C47.6649 18.4149 47.7724 18.3167 47.8425 18.1564C47.9178 17.9949 47.9595 17.7977 47.9676 17.5648L48.2937 17.4839C48.241 18.0904 48.0974 18.53 47.8629 18.8026C47.6322 19.0687 47.3745 19.2371 47.0898 19.3078C46.8724 19.3618 46.6817 19.3459 46.5175 19.2603C46.3573 19.1682 46.2353 19.0089 46.1516 18.7824C46.0541 19.0319 45.929 19.2471 45.7761 19.428C45.627 19.6024 45.4257 19.721 45.1721 19.784ZM45.4897 18.9056C45.6191 18.8734 45.7312 18.7824 45.8258 18.6325C45.9244 18.4762 45.9706 18.2861 45.9645 18.0623L45.9014 16.215C45.8847 16.1478 45.8427 16.0895 45.7756 16.0402C45.7071 15.9858 45.6185 15.9721 45.5098 15.9991C45.3028 16.0505 45.1466 16.2184 45.0414 16.5028C44.9349 16.782 44.8775 17.104 44.8691 17.4688C44.8595 17.8284 44.8869 18.1376 44.9511 18.3964C45.0154 18.6552 45.0928 18.8118 45.1832 18.8663C45.2789 18.9195 45.381 18.9326 45.4897 18.9056ZM45.9708 21.4403C45.8052 21.4815 45.6455 21.4579 45.4917 21.3697C45.3431 21.2803 45.2476 21.1501 45.2051 20.9793C45.1627 20.8085 45.1856 20.6462 45.2738 20.4924C45.3685 20.3425 45.4986 20.247 45.6643 20.2058C45.8351 20.1634 45.9974 20.1863 46.1512 20.2745C46.3062 20.3679 46.405 20.5 46.4474 20.6708C46.4898 20.8416 46.4637 21.002 46.369 21.1519C46.2744 21.3018 46.1416 21.3979 45.9708 21.4403Z" fill="#357960"/>
<path d="M49.0454 18.9077C48.7928 18.9491 48.5746 18.9037 48.3908 18.7717C48.2123 18.6388 48.0972 18.4144 48.0455 18.0986C48.024 17.967 48.017 17.7925 48.0247 17.5751L48.1466 14.953L49.2835 14.7668L49.1545 17.5442C49.1491 17.6099 49.152 17.677 49.1632 17.7454C49.2011 17.977 49.299 18.0799 49.4569 18.054C49.6042 18.0299 49.7207 17.9487 49.8061 17.8104C49.8907 17.6668 49.9469 17.482 49.9747 17.2559L50.0967 14.6337L51.2335 14.4476L51.1046 17.2249C51.0964 17.3073 51.0997 17.3932 51.1143 17.4827C51.1316 17.588 51.1678 17.6604 51.2229 17.7C51.2824 17.7335 51.3701 17.7408 51.4859 17.7218C51.5701 17.708 51.6297 17.6929 51.6649 17.6763C51.7044 17.6536 51.729 17.6388 51.7386 17.6318C51.7615 17.9037 51.7026 18.1214 51.5618 18.2849C51.4211 18.4485 51.2323 18.5497 50.9954 18.5884C50.7744 18.6246 50.5847 18.5881 50.4263 18.479C50.2731 18.3689 50.164 18.1976 50.0989 17.9651C49.9674 18.2839 49.8102 18.5123 49.6275 18.6503C49.4499 18.7874 49.2559 18.8732 49.0454 18.9077Z" fill="#357960"/>
<path d="M55.0477 19.8459C54.6586 19.8612 54.3403 19.7722 54.0925 19.5791C53.8503 19.3912 53.7228 19.1346 53.71 18.8096C53.7021 18.607 53.7427 18.4186 53.8319 18.2443C53.9212 18.07 54.0465 17.9317 54.208 17.8293C54.3692 17.7215 54.5484 17.6638 54.7456 17.6561C54.9481 17.6481 55.1126 17.6924 55.2392 17.7888C55.371 17.885 55.4402 18.0158 55.4467 18.181C55.4517 18.3089 55.4264 18.4113 55.3707 18.4882C55.3202 18.4261 55.2516 18.3781 55.1649 18.3441C55.0835 18.31 54.9975 18.2947 54.9069 18.2982C54.747 18.3045 54.6185 18.3629 54.5215 18.4735C54.4244 18.584 54.3792 18.7246 54.3859 18.8951C54.3926 19.0656 54.446 19.2023 54.5461 19.3051C54.6515 19.4078 54.7789 19.4561 54.9281 19.4503C55.1146 19.443 55.2712 19.3541 55.398 19.1836C55.5247 19.0132 55.6164 18.7641 55.6729 18.4363L56.0032 16.654L55.9713 16.6552C55.8353 16.8634 55.6655 17.0248 55.4619 17.1396C55.2635 17.2541 55.0418 17.3162 54.7967 17.3258C54.4876 17.3379 54.2125 17.266 53.9716 17.11C53.7306 16.954 53.5402 16.7266 53.4004 16.4279C53.2657 16.1236 53.1904 15.7689 53.1745 15.3639C53.1515 14.7777 53.2585 14.2397 53.4954 13.7501C53.7322 13.2551 54.069 12.8602 54.5058 12.5655C54.9426 12.2709 55.4301 12.1129 55.9683 12.0918C56.4213 12.074 56.7822 12.1586 57.0511 12.3456C57.3253 12.5323 57.4691 12.7962 57.4825 13.1373C57.4915 13.3664 57.4427 13.5525 57.3363 13.6954C57.2298 13.8384 57.0859 13.9134 56.9048 13.9205C56.8035 13.9245 56.7067 13.9069 56.6145 13.8679C56.5275 13.8286 56.4532 13.7701 56.3914 13.6925C56.4848 13.6248 56.5608 13.5204 56.6193 13.3793C56.6829 13.2327 56.7119 13.0874 56.7063 12.9435C56.7 12.7837 56.6472 12.663 56.548 12.5815C56.4538 12.4944 56.3215 12.4543 56.1509 12.4609C55.8418 12.4731 55.5488 12.6234 55.2719 12.9118C54.9948 13.1948 54.777 13.561 54.6185 14.0102C54.46 14.4595 54.3903 14.9266 54.4093 15.4115C54.425 15.8112 54.501 16.1151 54.6372 16.3233C54.7733 16.5261 54.9612 16.6228 55.201 16.6134C55.4888 16.6021 55.736 16.4403 55.9426 16.1279C56.1545 15.8154 56.3157 15.3661 56.4261 14.7799L57.3697 14.7509L56.8915 17.4598C56.7522 18.2605 56.5326 18.8536 56.2328 19.239C55.9383 19.6241 55.5433 19.8264 55.0477 19.8459Z" fill="#357960"/>
<path d="M58.7697 13.7412C58.5938 13.7369 58.446 13.6718 58.3265 13.5462C58.2069 13.4205 58.1493 13.2697 58.1537 13.0937C58.158 12.9178 58.2231 12.77 58.3487 12.6504C58.4745 12.5255 58.6254 12.4653 58.8014 12.4696C58.9773 12.474 59.125 12.5417 59.2445 12.6727C59.3694 12.7985 59.4296 12.9494 59.4253 13.1253C59.4209 13.3013 59.3532 13.449 59.2222 13.5684C59.0965 13.688 58.9457 13.7456 58.7697 13.7412ZM58.1145 18.2063C57.8586 18.2 57.6527 18.1148 57.4967 17.9509C57.3461 17.7871 57.2747 17.5452 57.2827 17.2253C57.286 17.092 57.3116 16.9193 57.3596 16.7071L57.9673 14.1534L59.1189 14.1821L58.4755 16.8869C58.4521 16.9663 58.4394 17.0514 58.4371 17.142C58.4344 17.2486 58.4565 17.3266 58.5033 17.3757C58.5556 17.4197 58.6403 17.4432 58.7576 17.4461C58.8536 17.4485 58.9393 17.4346 59.0148 17.4045C58.9868 17.6705 58.8857 17.8734 58.7115 18.0131C58.5428 18.1476 58.3438 18.212 58.1145 18.2063Z" fill="#357960"/>
<path d="M59.8833 18.2804C59.5803 18.2567 59.3358 18.1333 59.1499 17.9101C58.9641 17.687 58.8884 17.3547 58.9229 16.9134C58.9537 16.5199 59.063 16.1139 59.2508 15.6952C59.4444 15.2717 59.707 14.9231 60.0387 14.6494C60.3761 14.3709 60.7601 14.2484 61.1908 14.2821C61.4088 14.2991 61.5681 14.349 61.6686 14.4318C61.7691 14.5145 61.8146 14.617 61.8051 14.7393L61.8007 14.7952L61.9215 14.3793L63.07 14.4691L62.2838 17.1359C62.2563 17.214 62.239 17.2983 62.2319 17.3887C62.2236 17.495 62.2415 17.574 62.2857 17.6256C62.3355 17.6722 62.4189 17.7002 62.5359 17.7093C62.6103 17.7151 62.6696 17.7091 62.7138 17.6911C62.5736 17.9797 62.4455 18.181 62.3296 18.295C62.2141 18.4037 62.0554 18.4501 61.8533 18.4343C61.6353 18.4173 61.4622 18.3396 61.3339 18.2012C61.2114 18.0578 61.1433 17.868 61.1297 17.6315C60.7667 18.1007 60.3512 18.3169 59.8833 18.2804ZM60.4622 17.5472C60.5951 17.5576 60.7302 17.5067 60.8674 17.3944C61.0103 17.2771 61.1141 17.1114 61.179 16.8971L61.7027 15.1245C61.7081 15.0554 61.6867 14.9869 61.6386 14.9189C61.5908 14.8456 61.5111 14.8046 61.3994 14.7959C61.1867 14.7793 60.9856 14.8893 60.7959 15.1259C60.6066 15.3572 60.4504 15.6445 60.3273 15.988C60.2046 16.3261 60.1328 16.6281 60.112 16.894C60.0913 17.1598 60.1152 17.3329 60.1838 17.4132C60.2577 17.4938 60.3505 17.5385 60.4622 17.5472Z" fill="#357960"/>
<path d="M64.927 18.8859C64.6477 18.8424 64.4579 18.7265 64.3577 18.5382C64.2574 18.3499 64.2274 18.1266 64.2676 17.8684C64.2848 17.7577 64.3173 17.6359 64.3649 17.503C64.4134 17.3648 64.4611 17.2319 64.508 17.1043C64.5601 16.9774 64.5943 16.8964 64.6106 16.8611C64.6814 16.6833 64.7492 16.5076 64.814 16.3342C64.8788 16.1607 64.9198 16.0187 64.937 15.908C64.9788 15.6392 64.9049 15.4901 64.7152 15.4606C64.5781 15.4392 64.4463 15.4889 64.3196 15.6095C64.1937 15.7249 64.0823 15.8856 63.9854 16.0919L63.053 18.5457L61.9147 18.3685L63.3677 14.5465L64.506 14.7236L64.3551 15.1212C64.6645 14.867 64.9957 14.7675 65.3488 14.8224C65.6176 14.8642 65.8195 14.9712 65.9547 15.1434C66.0898 15.3156 66.134 15.5518 66.0873 15.8522C66.0635 16.005 66.0184 16.1734 65.952 16.3574C65.8864 16.5361 65.7984 16.7545 65.6881 17.0126C65.6205 17.1694 65.556 17.324 65.4945 17.4764C65.4391 17.6243 65.4044 17.743 65.3904 17.8326C65.374 17.938 65.385 18.0234 65.4235 18.0887C65.4619 18.1541 65.539 18.1958 65.655 18.2138C65.7815 18.2335 65.8709 18.2312 65.9232 18.207C65.8498 18.4708 65.7207 18.6586 65.536 18.7701C65.3566 18.8826 65.1536 18.9211 64.927 18.8859Z" fill="#357960"/>
<path d="M66.3969 21.1858C66.1527 21.1293 65.9557 20.9988 65.8059 20.7945C65.6601 20.5965 65.6155 20.3754 65.672 20.1312C65.7249 19.9026 65.8253 19.7287 65.9733 19.6097C66.1213 19.4907 66.2958 19.4106 66.4969 19.3696C66.698 19.3285 66.9627 19.2967 67.2909 19.2741L67.4368 18.963C67.0993 19.1914 66.7538 19.2648 66.4005 19.183C66.1043 19.1145 65.881 18.9561 65.7304 18.7077C65.5798 18.4594 65.5545 18.1196 65.6542 17.6883C65.7432 17.3038 65.9117 16.9185 66.1598 16.5325C66.4143 16.1425 66.7259 15.8369 67.0946 15.6156C67.4697 15.3904 67.8676 15.3265 68.2885 15.4239C68.5016 15.4732 68.6516 15.5462 68.7387 15.643C68.8258 15.7398 68.8555 15.8479 68.8279 15.9674L68.8243 15.983L68.9888 15.627L70.1189 15.8884L68.122 20.189C67.9027 20.6638 67.6383 20.9666 67.3288 21.0976C67.0245 21.2297 66.7139 21.2591 66.3969 21.1858ZM67.0821 18.5442C67.2016 18.5719 67.3325 18.5502 67.4748 18.4791C67.6236 18.404 67.7456 18.279 67.8408 18.1039L68.6748 16.3097C68.6753 16.1183 68.5898 16.0027 68.4183 15.963C68.2105 15.9149 67.9952 15.9937 67.7724 16.1995C67.5508 16.4 67.3536 16.6609 67.1807 16.9822C67.009 17.2983 66.8931 17.5863 66.833 17.8461C66.7729 18.1059 66.7708 18.2806 66.8267 18.3702C66.8878 18.4609 66.9729 18.519 67.0821 18.5442ZM66.3782 20.4506C66.4717 20.4722 66.5715 20.4433 66.6774 20.3638C66.7822 20.2895 66.8826 20.1513 66.9787 19.9491L67.1786 19.5109C66.8816 19.5407 66.6433 19.6005 66.4638 19.6903C66.2842 19.7802 66.1716 19.9238 66.1259 20.1213C66.1115 20.1836 66.1294 20.248 66.1798 20.3144C66.2289 20.386 66.295 20.4314 66.3782 20.4506Z" fill="#357960"/>
</g>
<defs>
<clipPath id="clip0_881_9537">
<rect width="120" height="120" fill="white" transform="translate(0.5)"/>
</clipPath>
</defs>
</svg>
